<?xml version="1.0" encoding="UTF-8"?>
<svg width="23px" height="23px" viewBox="0 0 23 23" version="1.1" xmlns="http://www.w3.org/2000/svg" xmlns:xlink="http://www.w3.org/1999/xlink">
    <title>icon/job</title>
    <g id="Page-1" stroke="none" stroke-width="1" fill="none" fill-rule="evenodd">
        <g id="2,0-About" transform="translate(-1144.000000, -1747.000000)" fill="#005398" fill-rule="nonzero">
            <g id="2-PILLARS" transform="translate(166.000000, 1240.000000)">
                <g id="Links" transform="translate(960.000000, 271.000000)">
                    <g id="Molecules-/-CTA-/-Button-/-Empty-Copy-4" transform="translate(0.000000, 231.000000)">
                        <g id="Molecules-/-CTA-/-Button-/-Empty" transform="translate(0.000000, 4.000000)">
                            <g id="Group" transform="translate(16.000000, 1.000000)">
                                <g id="building-(1)" transform="translate(2.000000, 0.000000)">
                                    <path d="M22.6166667,22.2333333 L20.3166667,22.2333333 L20.3166667,9.58333333 C20.3166667,9.3716375 20.1450292,9.2 19.9333333,9.2 L14.5666667,9.2 L14.5666667,0.383333333 C14.5666667,0.1716375 14.3950292,0 14.1833333,0 L4.21666667,0 C4.00497083,0 3.83333333,0.1716375 3.83333333,0.383333333 L3.83333333,22.2333333 L0.383333333,22.2333333 C0.1716375,22.2333333 0,22.4049708 0,22.6166667 C0,22.8283625 0.1716375,23 0.383333333,23 L22.6166667,23 C22.8283625,23 23,22.8283625 23,22.6166667 C23,22.4049708 22.8283625,22.2333333 22.6166667,22.2333333 Z M8.05,22.2333333 L6.51666667,22.2333333 L6.51666667,18.7833333 C6.51666667,18.5716375 6.68830417,18.4 6.9,18.4 L7.66666667,18.4 C7.8783625,18.4 8.05,18.5716375 8.05,18.7833333 L8.05,22.2333333 Z M9.58333333,9.58333333 L9.58333333,22.2333333 L8.81666667,22.2333333 L8.81666667,18.7833333 C8.81666667,18.1481979 8.30180208,17.6333333 7.66666667,17.6333333 L6.9,17.6333333 C6.26486458,17.6333333 5.75,18.1481979 5.75,18.7833333 L5.75,22.2333333 L4.6,22.2333333 L4.6,0.766666667 L13.8,0.766666667 L13.8,9.2 L9.96666667,9.2 C9.75497083,9.2 9.58333333,9.3716375 9.58333333,9.58333333 Z M19.55,22.2333333 L10.35,22.2333333 L10.35,9.96666667 L19.55,9.96666667 L19.55,22.2333333 Z" id="Shape"></path>
                                    <path d="M12.2666667,5.36666667 L9.96666667,5.36666667 C9.75497083,5.36666667 9.58333333,5.53830417 9.58333333,5.75 L9.58333333,8.05 C9.58333333,8.26169583 9.75497083,8.43333333 9.96666667,8.43333333 L12.2666667,8.43333333 C12.4783625,8.43333333 12.65,8.26169583 12.65,8.05 L12.65,5.75 C12.65,5.53830417 12.4783625,5.36666667 12.2666667,5.36666667 Z M11.8833333,7.66666667 L10.35,7.66666667 L10.35,6.13333333 L11.8833333,6.13333333 L11.8833333,7.66666667 Z" id="Shape"></path>
                                    <path d="M12.2666667,1.53333333 L9.96666667,1.53333333 C9.75497083,1.53333333 9.58333333,1.70497083 9.58333333,1.91666667 L9.58333333,4.21666667 C9.58333333,4.4283625 9.75497083,4.6 9.96666667,4.6 L12.2666667,4.6 C12.4783625,4.6 12.65,4.4283625 12.65,4.21666667 L12.65,1.91666667 C12.65,1.70497083 12.4783625,1.53333333 12.2666667,1.53333333 Z M11.8833333,3.83333333 L10.35,3.83333333 L10.35,2.3 L11.8833333,2.3 L11.8833333,3.83333333 Z" id="Shape"></path>
                                    <path d="M8.43333333,5.36666667 L6.13333333,5.36666667 C5.9216375,5.36666667 5.75,5.53830417 5.75,5.75 L5.75,8.05 C5.75,8.26169583 5.9216375,8.43333333 6.13333333,8.43333333 L8.43333333,8.43333333 C8.64502917,8.43333333 8.81666667,8.26169583 8.81666667,8.05 L8.81666667,5.75 C8.81666667,5.53830417 8.64502917,5.36666667 8.43333333,5.36666667 Z M8.05,7.66666667 L6.51666667,7.66666667 L6.51666667,6.13333333 L8.05,6.13333333 L8.05,7.66666667 Z" id="Shape"></path>
                                    <path d="M8.43333333,1.53333333 L6.13333333,1.53333333 C5.9216375,1.53333333 5.75,1.70497083 5.75,1.91666667 L5.75,4.21666667 C5.75,4.4283625 5.9216375,4.6 6.13333333,4.6 L8.43333333,4.6 C8.64502917,4.6 8.81666667,4.4283625 8.81666667,4.21666667 L8.81666667,1.91666667 C8.81666667,1.70497083 8.64502917,1.53333333 8.43333333,1.53333333 Z M8.05,3.83333333 L6.51666667,3.83333333 L6.51666667,2.3 L8.05,2.3 L8.05,3.83333333 Z" id="Shape"></path>
                                    <path d="M8.43333333,9.2 L6.13333333,9.2 C5.9216375,9.2 5.75,9.3716375 5.75,9.58333333 L5.75,11.8833333 C5.75,12.0950292 5.9216375,12.2666667 6.13333333,12.2666667 L8.43333333,12.2666667 C8.64502917,12.2666667 8.81666667,12.0950292 8.81666667,11.8833333 L8.81666667,9.58333333 C8.81666667,9.3716375 8.64502917,9.2 8.43333333,9.2 Z M8.05,11.5 L6.51666667,11.5 L6.51666667,9.96666667 L8.05,9.96666667 L8.05,11.5 Z" id="Shape"></path>
                                    <path d="M8.43333333,13.0333333 L6.13333333,13.0333333 C5.9216375,13.0333333 5.75,13.2049708 5.75,13.4166667 L5.75,15.7166667 C5.75,15.9283625 5.9216375,16.1 6.13333333,16.1 L8.43333333,16.1 C8.64502917,16.1 8.81666667,15.9283625 8.81666667,15.7166667 L8.81666667,13.4166667 C8.81666667,13.2049708 8.64502917,13.0333333 8.43333333,13.0333333 Z M8.05,15.3333333 L6.51666667,15.3333333 L6.51666667,13.8 L8.05,13.8 L8.05,15.3333333 Z" id="Shape"></path>
                                    <path d="M15.7166667,17.6333333 L18.0166667,17.6333333 C18.2283625,17.6333333 18.4,17.4616958 18.4,17.25 L18.4,14.95 C18.4,14.7383042 18.2283625,14.5666667 18.0166667,14.5666667 L15.7166667,14.5666667 C15.5049708,14.5666667 15.3333333,14.7383042 15.3333333,14.95 L15.3333333,17.25 C15.3333333,17.4616958 15.5049708,17.6333333 15.7166667,17.6333333 Z M16.1,15.3333333 L17.6333333,15.3333333 L17.6333333,16.8666667 L16.1,16.8666667 L16.1,15.3333333 Z" id="Shape"></path>
                                    <path d="M15.7166667,13.8 L18.0166667,13.8 C18.2283625,13.8 18.4,13.6283625 18.4,13.4166667 L18.4,11.1166667 C18.4,10.9049708 18.2283625,10.7333333 18.0166667,10.7333333 L15.7166667,10.7333333 C15.5049708,10.7333333 15.3333333,10.9049708 15.3333333,11.1166667 L15.3333333,13.4166667 C15.3333333,13.6283625 15.5049708,13.8 15.7166667,13.8 Z M16.1,11.5 L17.6333333,11.5 L17.6333333,13.0333333 L16.1,13.0333333 L16.1,11.5 Z" id="Shape"></path>
                                    <path d="M15.7166667,21.4666667 L18.0166667,21.4666667 C18.2283625,21.4666667 18.4,21.2950292 18.4,21.0833333 L18.4,18.7833333 C18.4,18.5716375 18.2283625,18.4 18.0166667,18.4 L15.7166667,18.4 C15.5049708,18.4 15.3333333,18.5716375 15.3333333,18.7833333 L15.3333333,21.0833333 C15.3333333,21.2950292 15.5049708,21.4666667 15.7166667,21.4666667 Z M16.1,19.1666667 L17.6333333,19.1666667 L17.6333333,20.7 L16.1,20.7 L16.1,19.1666667 Z" id="Shape"></path>
                                    <path d="M11.8833333,17.6333333 L14.1833333,17.6333333 C14.3950292,17.6333333 14.5666667,17.4616958 14.5666667,17.25 L14.5666667,14.95 C14.5666667,14.7383042 14.3950292,14.5666667 14.1833333,14.5666667 L11.8833333,14.5666667 C11.6716375,14.5666667 11.5,14.7383042 11.5,14.95 L11.5,17.25 C11.5,17.4616958 11.6716375,17.6333333 11.8833333,17.6333333 Z M12.2666667,15.3333333 L13.8,15.3333333 L13.8,16.8666667 L12.2666667,16.8666667 L12.2666667,15.3333333 Z" id="Shape"></path>
                                    <path d="M11.8833333,13.8 L14.1833333,13.8 C14.3950292,13.8 14.5666667,13.6283625 14.5666667,13.4166667 L14.5666667,11.1166667 C14.5666667,10.9049708 14.3950292,10.7333333 14.1833333,10.7333333 L11.8833333,10.7333333 C11.6716375,10.7333333 11.5,10.9049708 11.5,11.1166667 L11.5,13.4166667 C11.5,13.6283625 11.6716375,13.8 11.8833333,13.8 Z M12.2666667,11.5 L13.8,11.5 L13.8,13.0333333 L12.2666667,13.0333333 L12.2666667,11.5 Z" id="Shape"></path>
                                    <path d="M11.8833333,21.4666667 L14.1833333,21.4666667 C14.3950292,21.4666667 14.5666667,21.2950292 14.5666667,21.0833333 L14.5666667,18.7833333 C14.5666667,18.5716375 14.3950292,18.4 14.1833333,18.4 L11.8833333,18.4 C11.6716375,18.4 11.5,18.5716375 11.5,18.7833333 L11.5,21.0833333 C11.5,21.2950292 11.6716375,21.4666667 11.8833333,21.4666667 Z M12.2666667,19.1666667 L13.8,19.1666667 L13.8,20.7 L12.2666667,20.7 L12.2666667,19.1666667 Z" id="Shape"></path>
                                </g>
                            </g>
                        </g>
                    </g>
                </g>
            </g>
        </g>
    </g>
</svg>