<?xml version="1.0" encoding="UTF-8"?>
<svg width="27px" height="23px" viewBox="0 0 27 23" version="1.1" xmlns="http://www.w3.org/2000/svg" xmlns:xlink="http://www.w3.org/1999/xlink">
    <title>icon/job</title>
    <g id="Page-1" stroke="none" stroke-width="1" fill="none" fill-rule="evenodd">
        <g id="2,0-About" transform="translate(-1142.000000, -1593.000000)" fill="#005398" fill-rule="nonzero">
            <g id="2-PILLARS" transform="translate(166.000000, 1240.000000)">
                <g id="Links" transform="translate(960.000000, 271.000000)">
                    <g id="Molecules-/-CTA-/-Button-/-Empty-Copy-2" transform="translate(0.000000, 77.000000)">
                        <g id="Molecules-/-CTA-/-Button-/-Empty" transform="translate(0.000000, 4.000000)">
                            <g id="Group" transform="translate(16.000000, 1.000000)">
                                <g id="coins-(7)" transform="translate(0.000000, 0.851562)">
                                    <path d="M13.5,17.9296875 C13.2089063,17.9296875 12.9726562,18.1659375 12.9726562,18.4570312 C12.9726562,18.748125 13.2089063,18.984375 13.5,18.984375 C13.7910937,18.984375 14.0273438,18.748125 14.0273438,18.4570312 C14.0273438,18.1659375 13.7910937,17.9296875 13.5,17.9296875 Z" id="Path"></path>
                                    <path d="M24.7370098,0.810527344 C23.4393223,0.287876953 21.7521387,0 19.9863281,0 C18.2205176,0 16.533334,0.287876953 15.2356465,0.810527344 C14.4687832,1.11939258 13.8832734,1.49686523 13.5,1.92042773 C13.1167266,1.49686523 12.5312168,1.11944531 11.7643535,0.810580078 C10.466666,0.287876953 8.77948242,0 7.01367188,0 C5.24786133,0 3.56067773,0.287876953 2.26299023,0.810527344 C0.803671875,1.39830469 0,2.23414453 0,3.1640625 L0,15.8203125 C0,16.7502305 0.803671875,17.5860703 2.26299023,18.1738477 C3.46992187,18.6599531 5.01387891,18.9426094 6.64453125,18.9798398 L6.64453125,18.984375 C6.64453125,20.788207 9.59175,22.1484375 13.5,22.1484375 C17.40825,22.1484375 20.3554688,20.788207 20.3554688,18.984375 L20.3554688,18.9798398 C21.9861211,18.9426094 23.5300781,18.6599531 24.7370098,18.1738477 C26.1963281,17.5860703 27,16.7502305 27,15.8203125 L27,3.1640625 C27,2.23414453 26.1963281,1.39830469 24.7370098,0.810527344 Z M25.9453652,12.65625 C25.9453652,13.1064434 25.3313262,13.6333652 24.3429785,14.031457 C23.2732617,14.4622969 21.8370938,14.7229629 20.3554688,14.7604043 L20.3554688,12.65625 C20.3554688,12.6547207 20.3553633,12.6531914 20.3553633,12.6517148 C21.9860684,12.6145371 23.5300254,12.3318809 24.7370625,11.8457227 C25.2107754,11.6549297 25.6148789,11.437875 25.9453652,11.200043 L25.9453652,12.65625 L25.9453652,12.65625 Z M12.9726562,6.328125 C12.9726562,6.77831836 12.3586699,7.30524023 11.3703223,7.70333203 C10.2119063,8.16992578 8.62396875,8.4375 7.01367188,8.4375 C5.403375,8.4375 3.8154375,8.16992578 2.65702148,7.70333203 C1.66867383,7.30524023 1.0546875,6.77831836 1.0546875,6.328125 L1.0546875,4.87191797 C1.38517383,5.10975 1.78927734,5.32680469 2.26299023,5.51759766 C3.56067773,6.04024805 5.24786133,6.328125 7.01367188,6.328125 C8.77948242,6.328125 10.466666,6.04024805 11.7643535,5.51759766 C12.2380664,5.32680469 12.6421699,5.10975 12.9726562,4.87191797 L12.9726562,6.328125 Z M2.26299023,8.68166016 C3.56067773,9.20431055 5.24786133,9.4921875 7.01367188,9.4921875 C8.77948242,9.4921875 10.466666,9.20431055 11.7643535,8.68166016 C12.2380664,8.49086719 12.6421699,8.2738125 12.9726562,8.03598047 L12.9726562,9.50152148 C11.608418,9.5477168 10.3000781,9.77162695 9.24185742,10.1443008 C8.18047266,10.5181348 7.4167207,11.0166328 7.00138477,11.6014043 C5.39530664,11.6000332 3.81248437,11.3327754 2.65702148,10.8673945 C1.66867383,10.4693027 1.0546875,9.94238086 1.0546875,9.4921875 L1.0546875,8.03598047 C1.38517383,8.2738125 1.78927734,8.49086719 2.26299023,8.68166016 Z M1.0546875,11.200043 C1.38517383,11.437875 1.78927734,11.6549297 2.26299023,11.8457227 C3.46997461,12.3318281 5.01398437,12.6144844 6.64468945,12.6517148 C6.64468945,12.6532441 6.64458398,12.6547734 6.64458398,12.65625 L6.64458398,14.7604043 C5.16290625,14.7229629 3.72679102,14.4622969 2.65707422,14.031457 C1.66867383,13.6333652 1.0546875,13.1064434 1.0546875,12.65625 L1.0546875,11.200043 Z M7.75501172,12.397166 C8.14582617,11.4876562 10.4015391,10.546875 13.5,10.546875 C16.5984609,10.546875 18.8541738,11.4876562 19.2445664,12.3961113 C19.2824297,12.4847578 19.3007812,12.5698184 19.3007812,12.65625 C19.3007812,13.1198906 18.7291934,13.6348945 17.771748,14.0338301 C16.6392246,14.50575 15.1221621,14.765625 13.5,14.765625 C11.8778379,14.765625 10.3607754,14.50575 9.22825195,14.0338301 C8.27080664,13.6348945 7.69921875,13.1198906 7.69921875,12.65625 C7.69921875,12.5698184 7.71762305,12.4847578 7.75501172,12.397166 Z M25.9453125,9.4921875 C25.9453125,9.94238086 25.3313262,10.4693027 24.3429785,10.8673945 C23.1875684,11.3327754 21.6047988,11.6000332 19.9987734,11.6014043 C19.5837539,11.0169492 18.8198965,10.5182402 17.7581426,10.1443008 C16.6999219,9.77157422 15.391582,9.5477168 14.0273438,9.50152148 L14.0273438,8.03598047 C14.3578301,8.2738125 14.7619336,8.49086719 15.2356465,8.68166016 C16.533334,9.20431055 18.2205176,9.4921875 19.9863281,9.4921875 C21.7521387,9.4921875 23.4393223,9.20431055 24.7370098,8.68166016 C25.2107227,8.49086719 25.6148262,8.2738125 25.9453125,8.03598047 L25.9453125,9.4921875 Z M25.9453125,6.328125 C25.9453125,6.77831836 25.3313262,7.30524023 24.3429785,7.70333203 C23.1845625,8.16992578 21.596625,8.4375 19.9863281,8.4375 C18.3760313,8.4375 16.7880937,8.16992578 15.6296777,7.70333203 C14.6413301,7.30524023 14.0273438,6.77831836 14.0273438,6.328125 L14.0273438,4.87191797 C14.3578301,5.10975 14.7619336,5.32680469 15.2356465,5.51759766 C16.533334,6.04024805 18.2205176,6.328125 19.9863281,6.328125 C21.7521387,6.328125 23.4393223,6.04024805 24.7370098,5.51759766 C25.2107227,5.32680469 25.6148262,5.10975 25.9453125,4.87191797 L25.9453125,6.328125 Z M15.6296777,1.78885547 C16.7880937,1.32226172 18.3760313,1.0546875 19.9863281,1.0546875 C21.596625,1.0546875 23.1845625,1.32226172 24.3429785,1.78885547 C25.3313262,2.18694727 25.9453125,2.71386914 25.9453125,3.1640625 C25.9453125,3.61425586 25.3313262,4.14117773 24.3429785,4.53926953 C23.1845625,5.00586328 21.596625,5.2734375 19.9863281,5.2734375 C18.3760313,5.2734375 16.7880937,5.00586328 15.6296777,4.53926953 C14.6413301,4.14117773 14.0273438,3.61425586 14.0273438,3.1640625 C14.0273438,2.71386914 14.6413301,2.18694727 15.6296777,1.78885547 Z M2.65702148,1.78885547 C3.8154375,1.32226172 5.403375,1.0546875 7.01367188,1.0546875 C8.62396875,1.0546875 10.2119063,1.32226172 11.3703223,1.78885547 C12.3586699,2.18694727 12.9726562,2.71386914 12.9726562,3.1640625 C12.9726562,3.61425586 12.3586699,4.14117773 11.3703223,4.53926953 C10.2119063,5.00586328 8.62396875,5.2734375 7.01367188,5.2734375 C5.403375,5.2734375 3.8154375,5.00586328 2.65702148,4.53926953 C1.66867383,4.14117773 1.0546875,3.61425586 1.0546875,3.1640625 C1.0546875,2.71386914 1.66867383,2.18694727 2.65702148,1.78885547 Z M2.65702148,17.1955195 C1.66867383,16.7974277 1.0546875,16.2705059 1.0546875,15.8203125 L1.0546875,14.3641055 C1.38517383,14.6019375 1.78927734,14.8189922 2.26299023,15.0097852 C3.46992187,15.4958906 5.01387891,15.7785469 6.64453125,15.8157773 L6.64453125,17.9245195 C5.16285352,17.8870254 3.72673828,17.6264121 2.65702148,17.1955195 Z M17.771748,20.3619551 C16.6392246,20.833875 15.1221621,21.09375 13.5,21.09375 C11.8778379,21.09375 10.3607754,20.833875 9.22825195,20.3619551 C8.27080664,19.9630195 7.69921875,19.4480156 7.69921875,18.984375 L7.69921875,17.5589121 C7.81866211,17.6453438 7.95065625,17.731248 8.09704688,17.8159395 C8.91595898,18.2898105 10.0301836,18.6403359 11.3193281,18.8295469 C11.3453262,18.8333438 11.3710605,18.8351895 11.396584,18.8351895 C11.6539277,18.8351895 11.8791563,18.6465586 11.9176523,18.3843633 C11.9599453,18.0962227 11.7606094,17.828332 11.4725215,17.7860391 C9.02169141,17.4262324 7.69921875,16.504752 7.69921875,15.8203125 L7.69921875,14.3901563 C8.89280859,15.263543 10.9997051,15.8203125 13.5,15.8203125 C16.0002949,15.8203125 18.1071914,15.263543 19.3007812,14.3901563 L19.3007812,15.8203125 C19.3007812,16.504752 17.9783086,17.4262324 15.5274785,17.7860391 C15.2393379,17.828332 15.040002,18.0962227 15.0823477,18.3843633 C15.1208438,18.6466113 15.3460723,18.8351895 15.603416,18.8351895 C15.6288867,18.8351895 15.6547266,18.8333438 15.6806719,18.8295469 C16.9697637,18.6403359 18.0839883,18.2898633 18.9029531,17.8159395 C19.049291,17.731248 19.1813379,17.6453437 19.3007812,17.5589121 L19.3007812,18.984375 C19.3007812,19.4480156 18.7291934,19.9630195 17.771748,20.3619551 Z M24.3429785,17.1955195 C23.2732617,17.6263594 21.8370938,17.8870254 20.3554688,17.9244668 L20.3554688,15.8157246 C21.9861211,15.7784941 23.5300781,15.4958379 24.7370098,15.0097324 C25.2107227,14.8189395 25.6148262,14.6018848 25.9453125,14.3640527 L25.9453125,15.8203125 C25.9453125,16.2705059 25.3313262,16.7974277 24.3429785,17.1955195 Z" id="Shape"></path>
                                </g>
                            </g>
                        </g>
                    </g>
                </g>
            </g>
        </g>
    </g>
</svg>