<?xml version="1.0" encoding="UTF-8"?>
<svg width="23px" height="23px" viewBox="0 0 23 23" version="1.1" xmlns="http://www.w3.org/2000/svg" xmlns:xlink="http://www.w3.org/1999/xlink">
    <title>icon/job</title>
    <g id="Page-1" stroke="none" stroke-width="1" fill="none" fill-rule="evenodd">
        <g id="2,0-About" transform="translate(-1144.000000, -1824.000000)" fill="#005398" fill-rule="nonzero">
            <g id="2-PILLARS" transform="translate(166.000000, 1240.000000)">
                <g id="Links" transform="translate(960.000000, 271.000000)">
                    <g id="Molecules-/-CTA-/-Button-/-Empty-Copy-5" transform="translate(0.000000, 308.000000)">
                        <g id="Molecules-/-CTA-/-Button-/-Empty" transform="translate(0.000000, 4.000000)">
                            <g id="Group" transform="translate(16.000000, 1.000000)">
                                <g id="hospital" transform="translate(2.000000, 0.000000)">
                                    <path d="M11.5,0 C5.15421687,0 0,5.15421687 0,11.5 C0,17.8457831 5.15421687,23 11.5,23 C17.8457831,23 23,17.8457831 23,11.5 C23,5.15421687 17.8457831,0 11.5,0 Z M11.5,22.0024096 C5.70843373,22.0024096 0.997590361,17.2915663 0.997590361,11.5 C0.997590361,5.70843373 5.70843373,0.997590361 11.5,0.997590361 C17.2915663,0.997590361 22.0024096,5.70843373 22.0024096,11.5 C22.0024096,17.2915663 17.2915663,22.0024096 11.5,22.0024096 Z" id="Shape"></path>
                                    <path d="M17.4855422,9.0060241 L13.9939759,9.0060241 L13.9939759,5.51445783 C13.9939759,5.2373494 13.7722892,5.01566265 13.4951807,5.01566265 L9.50481928,5.01566265 C9.22771084,5.01566265 9.0060241,5.2373494 9.0060241,5.51445783 L9.0060241,9.0060241 L5.51445783,9.0060241 C5.2373494,9.0060241 5.01566265,9.22771084 5.01566265,9.50481928 L5.01566265,13.4951807 C5.01566265,13.7722892 5.2373494,13.9939759 5.51445783,13.9939759 L9.0060241,13.9939759 L9.0060241,17.4855422 C9.0060241,17.7626506 9.22771084,17.9843373 9.50481928,17.9843373 L13.4951807,17.9843373 C13.7722892,17.9843373 13.9939759,17.7626506 13.9939759,17.4855422 L13.9939759,13.9939759 L17.4855422,13.9939759 C17.7626506,13.9939759 17.9843373,13.7722892 17.9843373,13.4951807 L17.9843373,9.50481928 C17.9566265,9.22771084 17.7349398,9.0060241 17.4855422,9.0060241 Z M17.0144578,12.9963855 L16.986747,12.9963855 L13.4951807,12.9963855 C13.2180723,12.9963855 12.9963855,13.2180723 12.9963855,13.4951807 L12.9963855,16.986747 L10.0036145,16.986747 L10.0036145,13.4951807 C10.0036145,13.2180723 9.78192771,12.9963855 9.50481928,12.9963855 L6.01325301,12.9963855 L6.01325301,10.0036145 L9.50481928,10.0036145 C9.78192771,10.0036145 10.0036145,9.78192771 10.0036145,9.50481928 L10.0036145,6.01325301 L13.0240964,6.01325301 L13.0240964,9.50481928 C13.0240964,9.78192771 13.2457831,10.0036145 13.5228916,10.0036145 L17.0144578,10.0036145 L17.0144578,12.9963855 Z" id="Shape"></path>
                                </g>
                            </g>
                        </g>
                    </g>
                </g>
            </g>
        </g>
    </g>
</svg>