<?xml version="1.0" encoding="UTF-8"?>
<svg width="1008px" height="883px" viewBox="0 0 1008 883" version="1.1" xmlns="http://www.w3.org/2000/svg" xmlns:xlink="http://www.w3.org/1999/xlink">
    <title>logo-shape</title>
    <g id="Page-1" stroke="none" stroke-width="1" fill="none" fill-rule="evenodd">
        <g id="logo-shape" transform="translate(1.406691, 0.838453)" stroke="#FFFFFF">
            <polygon id="Combined-Shape" points="493.135149 0 580.237999 84.089 580.338089 83.985365 748.753999 246.606 749.112179 246.235093 876.842999 369.512 877.128919 369.217751 1004.90405 492.571869 881.513049 620.308797 827.293999 567.965 826.614789 568.669357 753.390999 497.965 630.081999 625.617 687.491339 681.051963 687.447999 681.096 757.368599 748.597983 633.977589 876.334911 506.447999 753.217 383.122469 880.897031 255.340239 757.550261 378.527999 630.012 250.862219 506.763042 251.081999 506.536 250.999999 506.457 127.782229 634.025946 0 510.679176 123.238 383.09 123.145693 383.000833 190.341999 313.488 189.980569 313.139417 424.759109 70.057322 425.121999 70.408"></polygon>
        </g>
    </g>
</svg>