<?xml version="1.0" encoding="UTF-8"?>
<svg width="1008px" height="882px" viewBox="0 0 1008 882" version="1.1" xmlns="http://www.w3.org/2000/svg" xmlns:xlink="http://www.w3.org/1999/xlink">
    <title>logo-shape-v2</title>
    <g id="Page-1" stroke="none" stroke-width="1" fill="none" fill-rule="evenodd">
        <g id="logo-shape-v2" transform="translate(1.257523, 1.742933)" stroke="#FFFFFF" stroke-width="1.5">
            <polygon id="Combined-Shape" points="501.972627 0 587.593997 85.596 587.696537 85.494475 753.247997 251.03 753.613267 250.665006 879.172997 376.153 879.464177 375.863133 1005.06702 501.428447 879.465487 626.99245 826.167997 573.711 825.476827 574.402769 753.497997 502.431 627.979997 627.911 684.413217 684.34022 684.368997 684.384 753.100987 753.095478 627.499457 878.659481 502.136997 753.335 376.602927 878.842881 250.992857 753.28479 376.387997 627.915 250.892357 502.457615 251.114997 502.234 251.034997 502.154 125.610065 627.553094 0 501.995003 125.446 376.576 125.355232 376.485294 193.754997 308.156 193.399177 307.800948 432.384327 68.853325 432.740997 69.21"></polygon>
        </g>
    </g>
</svg>