<?xml version="1.0" encoding="UTF-8"?>
<svg width="26px" height="26px" viewBox="0 0 26 26" version="1.1" xmlns="http://www.w3.org/2000/svg" xmlns:xlink="http://www.w3.org/1999/xlink">
    <title>menu (10) 2</title>
    <defs>
        <filter id="filter-1">
            <feColorMatrix in="SourceGraphic" type="matrix" values="0 0 0 0 1.000000 0 0 0 0 1.000000 0 0 0 0 1.000000 0 0 0 1.000000 0"></feColorMatrix>
        </filter>
    </defs>
    <g id="Page-1" stroke="none" stroke-width="1" fill="none" fill-rule="evenodd">
        <g id="Mobile-HP" transform="translate(-361.000000, -31.000000)">
            <g id="Banner" transform="translate(-439.000000, 0.000000)">
                <g id="Organisms-/-Menu-/-Regular" transform="translate(726.000000, 31.000000)">
                    <g id="menu-(10)" transform="translate(74.000000, 0.000000)" filter="url(#filter-1)">
                        <g>
                            <path d="M3.0952381,0 L0.619047619,0 C0.277333333,0 0,0.277333333 0,0.619047619 L0,3.0952381 C0,3.43695238 0.277333333,3.71428571 0.619047619,3.71428571 L3.0952381,3.71428571 C3.43695238,3.71428571 3.71428571,3.43695238 3.71428571,3.0952381 L3.71428571,0.619047619 C3.71428571,0.277333333 3.43695238,0 3.0952381,0 Z" id="Path" fill="#000000" fill-rule="nonzero"></path>
                            <path d="M3.0952381,11.1428571 L0.619047619,11.1428571 C0.277333333,11.1428571 0,11.4201905 0,11.7619048 L0,14.2380952 C0,14.5798095 0.277333333,14.8571429 0.619047619,14.8571429 L3.0952381,14.8571429 C3.43695238,14.8571429 3.71428571,14.5798095 3.71428571,14.2380952 L3.71428571,11.7619048 C3.71428571,11.4201905 3.43695238,11.1428571 3.0952381,11.1428571 Z" id="Path" fill="#000000" fill-rule="nonzero"></path>
                            <path d="M3.0952381,22.2857143 L0.619047619,22.2857143 C0.277333333,22.2857143 0,22.5630476 0,22.9047619 L0,25.3809524 C0,25.7226667 0.277333333,26 0.619047619,26 L3.0952381,26 C3.43695238,26 3.71428571,25.7226667 3.71428571,25.3809524 L3.71428571,22.9047619 C3.71428571,22.5630476 3.43695238,22.2857143 3.0952381,22.2857143 Z" id="Path" fill="#000000" fill-rule="nonzero"></path>
                            <path d="M14.2380952,0 L11.7619048,0 C11.4201905,0 11.1428571,0.277333333 11.1428571,0.619047619 L11.1428571,3.0952381 C11.1428571,3.43695238 11.4201905,3.71428571 11.7619048,3.71428571 L14.2380952,3.71428571 C14.5798095,3.71428571 14.8571429,3.43695238 14.8571429,3.0952381 L14.8571429,0.619047619 C14.8571429,0.277333333 14.5798095,0 14.2380952,0 Z" id="Path" fill="#000000" fill-rule="nonzero"></path>
                            <path d="M14.2380952,11.1428571 L11.7619048,11.1428571 C11.4201905,11.1428571 11.1428571,11.4201905 11.1428571,11.7619048 L11.1428571,14.2380952 C11.1428571,14.5798095 11.4201905,14.8571429 11.7619048,14.8571429 L14.2380952,14.8571429 C14.5798095,14.8571429 14.8571429,14.5798095 14.8571429,14.2380952 L14.8571429,11.7619048 C14.8571429,11.4201905 14.5798095,11.1428571 14.2380952,11.1428571 Z" id="Path" fill="#000000" fill-rule="nonzero"></path>
                            <path d="M14.2380952,22.2857143 L11.7619048,22.2857143 C11.4201905,22.2857143 11.1428571,22.5630476 11.1428571,22.9047619 L11.1428571,25.3809524 C11.1428571,25.7226667 11.4201905,26 11.7619048,26 L14.2380952,26 C14.5798095,26 14.8571429,25.7226667 14.8571429,25.3809524 L14.8571429,22.9047619 C14.8571429,22.5630476 14.5798095,22.2857143 14.2380952,22.2857143 Z" id="Path" fill="#000000" fill-rule="nonzero"></path>
                            <path d="M25.3809524,0 L22.9047619,0 C22.5630476,0 22.2857143,0.277333333 22.2857143,0.619047619 L22.2857143,3.0952381 C22.2857143,3.43695238 22.5630476,3.71428571 22.9047619,3.71428571 L25.3809524,3.71428571 C25.7226667,3.71428571 26,3.43695238 26,3.0952381 L26,0.619047619 C26,0.277333333 25.7226667,0 25.3809524,0 Z" id="Path" fill="#000000" fill-rule="nonzero"></path>
                            <path d="M25.3809524,11.1428571 L22.9047619,11.1428571 C22.5630476,11.1428571 22.2857143,11.4201905 22.2857143,11.7619048 L22.2857143,14.2380952 C22.2857143,14.5798095 22.5630476,14.8571429 22.9047619,14.8571429 L25.3809524,14.8571429 C25.7226667,14.8571429 26,14.5798095 26,14.2380952 L26,11.7619048 C26,11.4201905 25.7226667,11.1428571 25.3809524,11.1428571 Z" id="Path" fill="#000000" fill-rule="nonzero"></path>
                            <path d="M25.3809524,22.2857143 L22.9047619,22.2857143 C22.5630476,22.2857143 22.2857143,22.5630476 22.2857143,22.9047619 L22.2857143,25.3809524 C22.2857143,25.7226667 22.5630476,26 22.9047619,26 L25.3809524,26 C25.7226667,26 26,25.7226667 26,25.3809524 L26,22.9047619 C26,22.5630476 25.7226667,22.2857143 25.3809524,22.2857143 Z" id="Path" fill="#000000" fill-rule="nonzero"></path>
                        </g>
                    </g>
                </g>
            </g>
        </g>
    </g>
</svg>