<?xml version="1.0" encoding="UTF-8"?>
<svg width="16px" height="16px" viewBox="0 0 16 16" version="1.1" xmlns="http://www.w3.org/2000/svg" xmlns:xlink="http://www.w3.org/1999/xlink">
    <title>Search</title>
    <g id="Symbols" stroke="none" stroke-width="1" fill="none" fill-rule="evenodd">
        <g id="Organisms-/-Menu-/-Black-/-Default" transform="translate(-1822.000000, -46.000000)" fill="#FFFFFF" fill-rule="nonzero">
            <g id="Search" transform="translate(1822.000000, 46.000000)">
                <path d="M16,14.7343689 L11.2764093,10.0107782 C12.0604919,8.96443955 12.5310012,7.6704645 12.5310012,6.26550059 C12.5310012,2.81052455 9.72047663,0 6.26550059,0 C2.81052455,0 0,2.81052455 0,6.26550059 C0,9.72047663 2.81052455,12.5310012 6.26550059,12.5310012 C7.6704645,12.5310012 8.96443955,12.0604919 10.0107782,11.2764093 L14.7343689,16 L16,14.7343689 Z M1.39671434,6.26550059 C1.39671434,3.58074935 3.58074935,1.39671434 6.26550059,1.39671434 C8.95025182,1.39671434 11.1342868,3.58074935 11.1342868,6.26550059 C11.1342868,8.95025182 8.95025182,11.1342868 6.26550059,11.1342868 C3.58074935,11.1342868 1.39671434,8.95025182 1.39671434,6.26550059 Z" id="Shape"></path>
            </g>
        </g>
    </g>
</svg>