<?xml version="1.0" encoding="UTF-8"?>
<svg width="62px" height="68px" viewBox="0 0 62 68" version="1.1" xmlns="http://www.w3.org/2000/svg" xmlns:xlink="http://www.w3.org/1999/xlink">
    <title>share</title>
    <g id="Symbols" stroke="none" stroke-width="1" fill="none" fill-rule="evenodd">
        <g id="Atoms--/-Icons-/-share" transform="translate(-19.000000, -16.000000)" fill="#F2F5F7" fill-rule="nonzero">
            <g id="share" transform="translate(19.000000, 16.000000)">
                <path d="M59.664348,11.230797 C59.664348,16.2706461 55.5792067,20.3563015 50.5393576,20.3563015 C45.4995085,20.3563015 41.4143672,16.2706461 41.4143672,11.230797 C41.4143672,6.19146206 45.4995085,2.10580657 50.5393576,2.10580657 C55.5792067,2.10580657 59.664348,6.19146206 59.664348,11.230797 L59.664348,11.230797 Z" id="Path"></path>
                <path d="M50.5393576,22.4621081 C44.345325,22.4621081 39.3085606,17.4248295 39.3085606,11.230797 C39.3085606,5.03727857 44.345325,0 50.5393576,0 C56.7333902,0 61.7701546,5.03727857 61.7701546,11.230797 C61.7701546,17.4248295 56.7333902,22.4621081 50.5393576,22.4621081 Z M50.5393576,4.21161313 C46.6675731,4.21161313 43.5201738,7.36209718 43.5201738,11.230797 C43.5201738,15.1000109 46.6675731,18.250495 50.5393576,18.250495 C54.4111421,18.250495 57.5585414,15.1000109 57.5585414,11.230797 C57.5585414,7.36209718 54.4111421,4.21161313 50.5393576,4.21161313 Z" id="Shape"></path>
                <path d="M59.664348,56.1550132 C59.664348,61.1943481 55.5792067,65.2800036 50.5393576,65.2800036 C45.4995085,65.2800036 41.4143672,61.1943481 41.4143672,56.1550132 C41.4143672,51.1151641 45.4995085,47.0295086 50.5393576,47.0295086 C55.5792067,47.0295086 59.664348,51.1151641 59.664348,56.1550132 L59.664348,56.1550132 Z" id="Path"></path>
                <path d="M50.5393576,67.3858101 C44.345325,67.3858101 39.3085606,62.3485316 39.3085606,56.1550132 C39.3085606,49.9609806 44.345325,44.923702 50.5393576,44.923702 C56.7333902,44.923702 61.7701546,49.9609806 61.7701546,56.1550132 C61.7701546,62.3485316 56.7333902,67.3858101 50.5393576,67.3858101 Z M50.5393576,49.1353152 C46.6675731,49.1353152 43.5201738,52.2857992 43.5201738,56.1550132 C43.5201738,60.023713 46.6675731,63.174197 50.5393576,63.174197 C54.4111421,63.174197 57.5585414,60.023713 57.5585414,56.1550132 C57.5585414,52.2857992 54.4111421,49.1353152 50.5393576,49.1353152 L50.5393576,49.1353152 Z" id="Shape"></path>
                <path d="M20.3563015,33.6929051 C20.3563015,38.7327542 16.2706461,42.8178955 11.230797,42.8178955 C6.19146206,42.8178955 2.10580657,38.7327542 2.10580657,33.6929051 C2.10580657,28.653056 6.19146206,24.5679147 11.230797,24.5679147 C16.2706461,24.5679147 20.3563015,28.653056 20.3563015,33.6929051 Z" id="Path"></path>
                <path d="M11.230797,44.923702 C5.03727857,44.923702 0,39.8869377 0,33.6929051 C0,27.4988725 5.03727857,22.4621081 11.230797,22.4621081 C17.4248295,22.4621081 22.4621081,27.4988725 22.4621081,33.6929051 C22.4621081,39.8869377 17.4248295,44.923702 11.230797,44.923702 Z M11.230797,26.6737212 C7.35901243,26.6737212 4.21161313,29.8236911 4.21161313,33.6929051 C4.21161313,37.5621191 7.35901243,40.7120889 11.230797,40.7120889 C15.1030956,40.7120889 18.250495,37.5621191 18.250495,33.6929051 C18.250495,29.8236911 15.1030956,26.6737212 11.230797,26.6737212 Z" id="Shape"></path>
                <path d="M17.8602832,32.3454151 C16.8829546,32.3454151 15.933902,31.8369575 15.4172186,30.9274916 C14.6506762,29.5825721 15.1226319,27.8669773 16.4675513,27.0973503 L42.520224,12.2446277 C43.8651435,11.4724301 45.5807384,11.9443857 46.3503654,13.2944463 C47.1169078,14.6393658 46.6449521,16.3549606 45.3000327,17.1245876 L19.2468458,31.9773102 C18.8088216,32.2271691 18.3317248,32.3454151 17.8602832,32.3454151 Z" id="Path"></path>
                <path d="M43.9103854,55.5092873 C43.4384298,55.5092873 42.961333,55.3910413 42.5233088,55.1411825 L16.4701219,40.2884598 C15.1252024,39.5219174 14.6537609,37.8063226 15.4203032,36.4583186 C16.183761,35.1108286 17.9019263,34.6363023 19.2499305,35.4084999 L45.3031174,50.2612225 C46.6480369,51.027765 47.1194784,52.7433598 46.352936,54.0913638 C45.833682,55.0008297 44.8846294,55.5092873 43.9103854,55.5092873 L43.9103854,55.5092873 Z" id="Path"></path>
            </g>
        </g>
    </g>
</svg>