<?xml version="1.0" encoding="UTF-8"?>
<svg width="20px" height="23px" viewBox="0 0 20 23" version="1.1" xmlns="http://www.w3.org/2000/svg" xmlns:xlink="http://www.w3.org/1999/xlink">
    <title>shopping-bag</title>
    <g id="Symbols" stroke="none" stroke-width="1" fill="none" fill-rule="evenodd">
        <g id="Atoms-/-Icons-/-Pillars-/-Retail" transform="translate(-3.000000, 0.000000)" fill="#005398" fill-rule="nonzero">
            <g id="shopping-bag" transform="translate(3.508147, 0.000000)">
                <path d="M13.0259322,2.84206528 C12.7947753,1.22191105 11.3845353,0 9.74576517,0 C8.69185404,0 7.69093541,0.50856808 7.0686162,1.36090214 C6.94150273,1.53472667 6.97953398,1.77856068 7.15335851,1.90567415 C7.326612,2.03233079 7.57101705,1.99475636 7.6979021,1.82070342 C8.17426353,1.16891855 8.93968533,0.779697796 9.74565096,0.779697796 C10.9989692,0.779697796 12.0772066,1.71369056 12.2540006,2.95204755 C12.2818673,3.14654372 12.4487251,3.28690531 12.6395667,3.28690531 C12.6577257,3.28690531 12.6764558,3.28553482 12.6950717,3.28302224 C12.9081838,3.25252871 13.0563115,3.05506314 13.0259322,2.84206528 Z" id="Path"></path>
                <path d="M18.6562708,7.20606593 L17.4867812,5.25687855 C17.4164291,5.13935855 17.2895441,5.06763594 17.1524945,5.06763594 L16.0317717,5.06763594 C15.8166039,5.06763594 15.6419799,5.24225993 15.6419799,5.45742774 C15.6419799,5.67259555 15.8166039,5.84721953 16.0317717,5.84721953 L16.9318447,5.84721953 L17.6335385,7.01670912 L1.85787767,7.01670912 L2.55957142,5.84721953 L2.97243323,5.84721953 C3.18760104,5.84721953 3.36222502,5.67259555 3.36222502,5.45742774 C3.36222502,5.24225993 3.18760104,5.06763594 2.97243323,5.06763594 L2.33892163,5.06763594 C2.20187207,5.06763594 2.07498702,5.13935855 2.00463491,5.25687855 L0.835145319,7.20606593 C0.762851675,7.32666955 0.761138556,7.47662461 0.830234376,7.59882713 C0.899330197,7.72102966 1.02884203,7.79663533 1.16943204,7.79663533 L18.3219841,7.79663533 C18.4625741,7.79663533 18.5919717,7.72102966 18.6611818,7.59882713 C18.7303918,7.47662461 18.7285645,7.32644113 18.6562708,7.20606593 Z" id="Path"></path>
                <path d="M16.7131365,3.61159856 C16.658545,3.52354422 16.5714044,3.46107246 16.4706729,3.43754562 L11.156462,2.19462031 C11.0558448,2.17097926 10.9498598,2.18856729 10.8619196,2.24293028 C10.7742079,2.29752169 10.711622,2.38466237 10.6880951,2.48539379 L10.2873394,4.19851331 C10.2382299,4.40808493 10.368427,4.61777076 10.5781128,4.66665177 C10.7876845,4.7157612 10.9975987,4.58556411 11.0464797,4.37587828 L11.3584959,3.04250026 L15.9134523,4.10794639 L15.1977109,7.16814889 C15.1486015,7.37772051 15.2787986,7.58740634 15.4884844,7.63628735 C15.5185211,7.64325403 15.5483294,7.64656606 15.577795,7.64656606 C15.7548174,7.64656606 15.9150512,7.5252772 15.9567371,7.34562807 L16.7613322,3.9059125 C16.7850875,3.80529528 16.7677279,3.69931028 16.7131365,3.61159856 Z" id="Path"></path>
                <path d="M9.95191055,4.53314266 L9.59672377,1.52890206 C9.58461773,1.4262291 9.53219627,1.33246436 9.4508802,1.2685079 C9.36956412,1.20455144 9.26689116,1.1753142 9.16376137,1.18742024 L2.64362849,1.95809561 C2.42994538,1.98344978 2.27713512,2.17714649 2.30237508,2.39105801 L2.89454339,7.40170418 C2.91807023,7.60008342 3.08629857,7.745927 3.28125157,7.745927 C3.29644123,7.745927 3.31208772,7.74489912 3.32762001,7.74318601 C3.54118891,7.71783184 3.69399917,7.52413512 3.66887341,7.3102236 L3.12238829,2.68639982 L8.86830535,2.00731924 L9.17758053,4.62439482 C9.2029347,4.83819214 9.39571775,4.99008873 9.61054294,4.96587665 C9.82422604,4.94075089 9.9770363,4.74693997 9.95191055,4.53314266 Z" id="Path"></path>
                <path d="M13.0349546,7.2586016 L12.2611957,4.04090631 C12.2369836,3.94051751 12.1738266,3.85360525 12.0857722,3.79958488 C11.9977179,3.74602134 11.8920755,3.72923277 11.7910015,3.75321644 L5.51104793,5.26350261 C5.30170473,5.31375412 5.17287814,5.52435361 5.22312965,5.73369681 L5.60983783,7.34197341 C5.66008933,7.55154504 5.87068882,7.68048583 6.07991782,7.6298917 C6.28926103,7.5796402 6.41808761,7.3690407 6.36783611,7.1596975 L6.07215168,5.93036293 L11.5941069,4.6025811 L12.2767279,7.44110593 C12.3195559,7.6198414 12.4794471,7.73975977 12.6554416,7.73975977 C12.6857067,7.73975977 12.7163144,7.73621932 12.7470364,7.7287958 C12.9563796,7.67843009 13.0852061,7.4679448 13.0349546,7.2586016 Z" id="Path"></path>
                <path d="M18.7116617,7.38685715 C18.7009261,7.17968389 18.5298426,7.01705175 18.3222125,7.01705175 L1.16966046,7.01705175 C0.962030371,7.01705175 0.790946835,7.17956968 0.780211286,7.38685715 L0.000513490608,22.5902218 C-0.00496849184,22.6968921 0.0336338013,22.8012781 0.107183732,22.8787111 C0.180847872,22.9560299 0.282949795,23 0.389848453,23 L19.1016819,23 C19.2084663,23 19.3106825,22.9561441 19.3846892,22.8787111 C19.458125,22.8012781 19.4967272,22.6970063 19.4913595,22.5902218 L18.7116617,7.38685715 Z M0.800083473,22.2203022 L1.53980848,7.79663533 L17.9516077,7.79663533 L18.6913327,22.2203022 L0.800083473,22.2203022 Z" id="Shape"></path>
                <path d="M12.6694891,8.57621892 C12.0245568,8.57621892 11.4999996,9.10077612 11.4999996,9.74570851 C11.4999996,10.3906409 12.0245568,10.9151981 12.6694891,10.9151981 C13.3144215,10.9151981 13.8389787,10.3906409 13.8389787,9.74570851 C13.8389787,9.10077612 13.3144215,8.57621892 12.6694891,8.57621892 Z M12.6694891,10.1356145 C12.4544355,10.1356145 12.2796974,9.96076211 12.2796974,9.74582272 C12.2796974,9.53088332 12.4545497,9.35603093 12.6694891,9.35603093 C12.8844285,9.35603093 13.0592809,9.53088332 13.0592809,9.74582272 C13.0592809,9.96076211 12.8844285,10.1356145 12.6694891,10.1356145 Z" id="Shape"></path>
                <path d="M6.8220412,8.57621892 C6.1771088,8.57621892 5.65255161,9.10077612 5.65255161,9.74570851 C5.65255161,10.3906409 6.1771088,10.9151981 6.8220412,10.9151981 C7.46697359,10.9151981 7.99153079,10.3906409 7.99153079,9.74570851 C7.99153079,9.10077612 7.46697359,8.57621892 6.8220412,8.57621892 Z M6.8220412,10.1356145 C6.6071018,10.1356145 6.4322494,9.96076211 6.4322494,9.74582272 C6.4322494,9.53088332 6.6071018,9.35603093 6.8220412,9.35603093 C7.03698059,9.35603093 7.21183299,9.53088332 7.21183299,9.74582272 C7.21183299,9.96076211 7.03698059,10.1356145 6.8220412,10.1356145 Z" id="Shape"></path>
                <path d="M12.6694891,9.74570851 L12.6394524,9.74570851 C12.4242846,9.74570851 12.2496607,9.92033249 12.2496607,10.1355003 C12.2496607,10.1887212 12.2601678,10.2395438 12.2796974,10.285798 L12.2796974,12.2795265 C12.2796974,13.6766326 11.1429854,14.8134587 9.74576517,14.8134587 C8.34854489,14.8134587 7.21183299,13.6767468 7.21183299,12.2795265 L7.21183299,10.1356145 C7.21183299,9.9204467 7.03720901,9.74582272 6.8220412,9.74582272 C6.60687338,9.74582272 6.4322494,9.9204467 6.4322494,10.1356145 L6.4322494,12.2796407 C6.4322494,14.1067398 7.9186661,15.5931565 9.74576517,15.5931565 C11.5728642,15.5931565 13.0592809,14.1067398 13.0592809,12.2796407 L13.0592809,10.1356145 C13.0592809,9.9204467 12.884657,9.74570851 12.6694891,9.74570851 Z" id="Path"></path>
            </g>
        </g>
    </g>
</svg>