<?xml version="1.0" encoding="UTF-8"?>
<svg width="26px" height="26px" viewBox="0 0 26 26" version="1.1" xmlns="http://www.w3.org/2000/svg" xmlns:xlink="http://www.w3.org/1999/xlink">
    <title>Atoms / icons / System / SM-instagram</title>
    <defs>
        <linearGradient x1="191.97298%" y1="-120.560093%" x2="0.862610393%" y2="107.316008%" id="linearGradient-1">
            <stop stop-color="#05ADEF" offset="0%"></stop>
            <stop stop-color="#1B4A9B" offset="100%"></stop>
        </linearGradient>
        <path d="M19.9299551,0.215613782 C22.5948039,0.215613782 24.7620962,2.38194403 24.7620962,5.04669845 L24.7620962,20.3836438 C24.7620962,23.0492835 22.5948039,25.2156138 19.9308404,25.2156138 L4.59335192,25.2156138 C1.92850314,25.2156138 -0.237903831,23.0492835 -0.237903831,20.3836438 L-0.237903831,5.04669845 C-0.237903831,2.38194403 1.92850314,0.215613782 4.59335192,0.215613782 L19.9299551,0.215613782 Z M5.92843231,10.1495704 L2.19675868,10.1495704 L2.19675868,20.3836438 C2.19675868,21.7062827 3.27066618,22.7774963 4.59246659,22.7774963 L19.9290698,22.7774963 C21.2490995,22.7774963 22.3247777,21.7062827 22.3247777,20.3836438 L22.3247777,10.1495704 L18.5913334,10.1495704 C18.9162501,10.941029 19.0995138,11.8077381 19.0995138,12.7142858 C19.0995138,16.4830099 16.0327244,19.5514614 12.2620962,19.5514614 C8.49146794,19.5514614 5.42556384,16.4830099 5.42556384,12.7142858 C5.42556384,11.8077381 5.60617153,10.941029 5.92843231,10.1495704 Z M12.2638668,8.31434249 C10.7951013,8.31434249 9.49631956,9.04028888 8.69509426,10.1486851 C8.17451915,10.8710903 7.86376768,11.7555054 7.86288234,12.7134005 C7.86022635,15.1400091 9.83540164,17.1142292 12.2612108,17.1142292 C14.6861347,17.1142292 16.6630807,15.1408944 16.6630807,12.7142858 C16.6630807,11.7563907 16.3496732,10.8719756 15.8308687,10.1495704 C15.0314141,9.04117418 13.731747,8.31434249 12.2638668,8.31434249 Z M21.8697171,3.09461091 L21.3181554,3.09638152 L17.6316337,3.10789042 L17.645799,7.34582378 L21.8697171,7.33165897 L21.8697171,3.09461091 Z" id="path-2"></path>
    </defs>
    <g id="Page-1" stroke="none" stroke-width="1" fill="none" fill-rule="evenodd">
        <g id="1,3-LP-HELP" transform="translate(-1242.000000, -863.000000)">
            <g id="Quick-Help" transform="translate(325.000000, 116.000000)">
                <g id="Contact" transform="translate(798.000000, 365.000000)">
                    <g id="Atoms-/-icons-/-System-/-SM-instagram" transform="translate(119.237904, 382.784386)">
                        <mask id="mask-3" fill="white">
                            <use xlink:href="#path-2"></use>
                        </mask>
                        <use id="Combined-Shape2" fill="url(#linearGradient-1)" fill-rule="nonzero" xlink:href="#path-2"></use>
                    </g>
                </g>
            </g>
        </g>
    </g>
</svg>