<?xml version="1.0" encoding="UTF-8"?>
<svg width="14px" height="14px" viewBox="0 0 14 14" version="1.1" xmlns="http://www.w3.org/2000/svg" xmlns:xlink="http://www.w3.org/1999/xlink">
    <title>Atoms / icons / System / SM-instagram</title>
    <defs>
        <path d="M11.293601,0 C12.7858635,0 13.9995042,1.21314494 13.9995042,2.70540742 L13.9995042,11.2940968 C13.9995042,12.7868551 12.7858635,14 11.2940968,14 L2.70540742,14 C1.21314494,14 1.77635684e-15,12.7868551 1.77635684e-15,11.2940968 L1.77635684e-15,2.70540742 C1.77635684e-15,1.21314494 1.21314494,0 2.70540742,0 L11.293601,0 Z M3.45302596,5.56301569 L1.36336273,5.56301569 L1.36336273,11.2940968 C1.36336273,12.0347746 1.96472963,12.6346542 2.70491165,12.6346542 L11.2931053,12.6346542 C12.0322958,12.6346542 12.6346542,12.0347746 12.6346542,11.2940968 L12.6346542,5.56301569 L10.5439994,5.56301569 C10.7259464,6.00623252 10.8285704,6.49158965 10.8285704,6.99925635 C10.8285704,9.10974185 9.11122915,10.8280746 6.99975212,10.8280746 C4.88827508,10.8280746 3.17142958,9.10974185 3.17142958,6.99925635 C3.17142958,6.49158965 3.27256631,6.00623252 3.45302596,5.56301569 Z M7.00074365,4.53528808 C6.1782641,4.53528808 5.45097206,4.94181805 5.00230178,5.56251992 C4.71079004,5.96706682 4.53677538,6.46233932 4.53627961,6.99876058 C4.53479231,8.35766139 5.6408513,9.46322462 6.99925635,9.46322462 C8.35716562,9.46322462 9.46421615,8.35815716 9.46421615,6.99925635 C9.46421615,6.46283509 9.28871419,5.96756259 8.99819399,5.56301569 C8.55051524,4.94231382 7.82272743,4.53528808 7.00074365,4.53528808 Z M12.3798293,1.61223839 L12.0709657,1.61322993 L10.0065866,1.61967492 L10.0145189,3.9929176 L12.3798293,3.9849853 L12.3798293,1.61223839 Z" id="path-1"></path>
    </defs>
    <g id="Symbols" stroke="none" stroke-width="1" fill="none" fill-rule="evenodd">
        <g id="Organisms-/-Footer" transform="translate(-1660.000000, -712.000000)">
            <g id="Connect" transform="translate(1615.000000, 676.000000)">
                <g id="Atoms-/-icons-/-System-/-SM-instagram" transform="translate(45.000000, 36.000000)">
                    <mask id="mask-2" fill="white">
                        <use xlink:href="#path-1"></use>
                    </mask>
                    <use id="Combined-Shape2" fill="#FFFFFF" fill-rule="nonzero" xlink:href="#path-1"></use>
                </g>
            </g>
        </g>
    </g>
</svg>