<?xml version="1.0" encoding="UTF-8"?>
<svg width="14px" height="13px" viewBox="0 0 14 13" version="1.1" xmlns="http://www.w3.org/2000/svg" xmlns:xlink="http://www.w3.org/1999/xlink">
    <title>Atoms / icons / System / SM-Linkedin</title>
    <defs>
        <path d="M10.2468797,4.02223524 C12.1656684,4.02223524 13.6042162,5.27590765 13.6042162,7.96965033 L13.6042162,13 L10.6877531,13 L10.6877531,8.30677597 C10.6877531,7.12835871 10.2666722,6.32360716 9.21070771,6.32360716 C8.40486866,6.32360716 7.92615024,6.8654007 7.71473984,7.39001171 C7.63796219,7.57749707 7.61816965,7.83784507 7.61816965,8.10080308 L7.61816965,12.9997825 L4.70148904,12.9997825 L4.70197624,12.8982655 C4.70437745,12.3908154 4.71496053,10.0694078 4.71804356,7.94682 L4.71833227,6.12079585 C4.71680107,5.17377235 4.71192906,4.44762255 4.70148904,4.22820813 L7.61838715,4.22820813 L7.61838715,5.47122302 C8.0059729,4.87483687 8.69718923,4.02223524 10.2468797,4.02223524 Z M3.08894094,4.22820813 L3.08894094,13 L0.173347833,13 L0.173347833,4.22820813 L3.08894094,4.22820813 Z M1.65039317,8.8817842e-16 C2.64828509,8.8817842e-16 3.26141877,0.654893759 3.28077631,1.51532541 C3.28077631,2.35748703 2.64828509,3.03130333 1.63103564,3.03130333 L1.63103564,3.03130333 L1.6121131,3.03130333 C0.633796219,3.03130333 0,2.35748703 0,1.51532541 C0,0.654893759 0.652718755,8.8817842e-16 1.65039317,8.8817842e-16 Z" id="path-1"></path>
    </defs>
    <g id="Symbols" stroke="none" stroke-width="1" fill="none" fill-rule="evenodd">
        <g id="Organisms-/-Footer" transform="translate(-1700.000000, -713.000000)">
            <g id="Connect" transform="translate(1615.000000, 676.000000)">
                <g id="Atoms-/-icons-/-System-/-SM-Linkedin" transform="translate(85.000000, 37.000000)">
                    <mask id="mask-2" fill="white">
                        <use xlink:href="#path-1"></use>
                    </mask>
                    <use id="Mask" fill="#FFFFFF" fill-rule="nonzero" xlink:href="#path-1"></use>
                </g>
            </g>
        </g>
    </g>
</svg>