<?xml version="1.0" standalone="no"?>
<!DOCTYPE svg PUBLIC "-//W3C//DTD SVG 20010904//EN"
 "http://www.w3.org/TR/2001/REC-SVG-20010904/DTD/svg10.dtd">
<svg version="1.0" xmlns="http://www.w3.org/2000/svg"
 width="928.000000pt" height="928.000000pt" viewBox="0 0 928.000000 928.000000"
 preserveAspectRatio="xMidYMid meet">
<metadata>
Created by potrace 1.14, written by Peter Selinger 2001-2017
</metadata>
<g transform="translate(0.000000,928.000000) scale(0.100000,-0.100000)"
fill="#000000" stroke="none">
<path d="M4566 8408 c-37 -37 -69 -68 -71 -68 -2 0 -34 -30 -73 -67 -78 -76
-172 -165 -377 -358 -76 -71 -157 -148 -180 -170 -24 -22 -93 -87 -154 -145
-61 -58 -142 -134 -180 -170 -37 -36 -132 -126 -211 -200 -79 -74 -165 -155
-191 -180 -26 -25 -107 -101 -180 -170 -73 -69 -149 -141 -169 -160 -20 -19
-98 -93 -174 -165 -76 -71 -161 -151 -187 -177 -27 -27 -49 -47 -49 -45 0 1
-42 -38 -94 -88 -51 -49 -153 -146 -226 -215 -74 -69 -176 -165 -228 -215
-145 -138 -180 -171 -312 -295 -68 -63 -142 -133 -165 -155 -23 -22 -106 -101
-185 -175 -79 -74 -157 -149 -174 -165 -17 -17 -44 -40 -60 -53 -16 -12 -26
-22 -23 -22 4 0 -15 -19 -41 -42 -25 -24 -71 -67 -100 -95 -29 -29 -54 -53
-56 -53 -1 0 -34 -30 -73 -67 -151 -146 -278 -263 -285 -263 -4 0 -8 -7 -8
-15 0 -8 -4 -15 -8 -15 -5 0 -41 -31 -81 -70 -40 -38 -74 -70 -75 -70 -2 0
-42 -37 -89 -83 l-87 -83 127 -119 c69 -66 152 -145 184 -175 31 -30 108 -102
169 -160 62 -58 138 -130 170 -160 32 -30 117 -111 190 -180 160 -150 244
-230 287 -272 l33 -32 26 25 c15 13 56 52 93 87 36 35 96 91 134 125 37 34
100 94 140 132 40 39 124 117 186 175 63 58 137 128 166 155 29 28 103 97 165
155 117 109 174 162 226 211 l30 29 76 -72 c43 -40 112 -106 155 -147 43 -40
150 -141 237 -225 87 -83 180 -171 207 -196 26 -25 106 -101 179 -170 72 -69
170 -161 217 -206 l85 -81 -34 -34 c-19 -19 -92 -88 -162 -154 -70 -66 -151
-142 -180 -170 -29 -27 -122 -115 -206 -195 -165 -157 -302 -286 -392 -373
-31 -30 -58 -54 -60 -53 -2 0 -31 -27 -65 -61 l-63 -62 24 -23 c53 -51 178
-169 285 -268 62 -58 134 -125 160 -150 26 -25 103 -97 171 -160 68 -63 140
-131 160 -150 121 -114 300 -281 330 -308 l35 -30 111 106 c61 59 189 182 285
274 96 92 233 224 304 293 235 227 427 410 434 413 3 1 38 -28 78 -65 39 -38
113 -106 164 -153 51 -47 107 -98 123 -113 16 -15 66 -61 110 -101 45 -41 97
-89 116 -107 33 -32 196 -182 265 -245 17 -14 62 -56 100 -93 113 -106 223
-203 231 -203 6 -1 73 61 310 287 41 39 131 124 201 190 69 66 148 140 174
165 116 111 340 322 397 375 34 32 62 62 62 67 0 5 -12 20 -27 34 -26 24 -169
159 -353 334 -43 41 -112 107 -153 145 -229 217 -378 358 -440 418 -39 38 -87
83 -106 101 -64 58 -67 64 -40 87 13 11 94 87 179 168 85 82 173 165 195 186
22 20 110 103 195 185 85 81 183 174 218 206 35 33 96 91 136 129 40 39 105
101 146 138 l73 68 76 -75 c42 -41 92 -89 111 -106 30 -28 219 -207 380 -360
26 -25 111 -106 190 -180 79 -74 164 -155 190 -180 133 -127 186 -176 196
-183 7 -4 35 16 67 46 30 28 88 84 129 122 41 39 143 135 227 215 168 159 176
167 376 355 76 72 166 157 201 190 34 33 85 82 113 108 l50 48 -27 26 c-15 13
-94 88 -176 166 -168 161 -199 190 -356 337 -61 58 -137 130 -169 160 -31 30
-126 120 -211 200 -84 80 -174 165 -200 190 -40 38 -275 260 -376 355 -104 98
-326 308 -375 355 -58 55 -289 275 -359 340 -20 19 -104 99 -186 177 -82 77
-169 160 -194 183 -42 40 -236 223 -391 370 -37 36 -123 117 -190 180 -67 63
-148 140 -180 170 -31 30 -108 102 -169 160 -61 58 -142 134 -179 170 -38 36
-133 126 -211 200 -247 233 -321 303 -386 365 -153 146 -287 270 -298 276 -6
3 -42 -25 -80 -63z m469 -2563 c305 -305 555 -559 555 -565 0 -6 -250 -260
-555 -565 l-555 -555 -555 555 c-305 305 -555 559 -555 565 0 8 1096 1115
1107 1119 2 1 253 -249 558 -554z"/>
</g>
</svg>
