<?xml version="1.0" encoding="UTF-8"?>
<svg width="19px" height="23px" viewBox="0 0 19 23" version="1.1" xmlns="http://www.w3.org/2000/svg" xmlns:xlink="http://www.w3.org/1999/xlink">
    <title>businessman</title>
    <g id="Symbols" stroke="none" stroke-width="1" fill="none" fill-rule="evenodd">
        <g id="Atoms-/-Icons-/-Pillars-/-Employee" transform="translate(-4.000000, 0.000000)" fill="#005398" fill-rule="nonzero">
            <g id="businessman" transform="translate(4.000000, 0.000000)">
                <path d="M9.34375,0 C6.24750977,0 3.72851562,2.51899414 3.72851562,5.61523438 C3.72851562,8.71147461 6.24750977,11.2304688 9.34375,11.2304688 C12.4399902,11.2304688 14.9589844,8.71147461 14.9589844,5.61523438 C14.9589844,2.51899414 12.4399902,0 9.34375,0 Z M9.34375,9.8828125 C6.99060742,9.8828125 5.07617188,7.96837695 5.07617188,5.61523438 C5.07617188,3.2620918 6.99060742,1.34765625 9.34375,1.34765625 C11.6968926,1.34765625 13.6113281,3.2620918 13.6113281,5.61523438 C13.6113281,7.96837695 11.6968926,9.8828125 9.34375,9.8828125 Z" id="Shape"></path>
                <path d="M18.2255234,20.123248 C17.5634199,15.7684316 13.8172051,12.578125 9.415625,12.578125 L9.24096875,12.578125 C4.84958594,12.578125 1.1208457,15.7895898 0.461931641,20.123248 L0.0245722656,23 L18.6629277,23 L18.2255234,20.123248 Z M8.66992188,21.6523438 L1.59261523,21.6523438 L1.79431445,20.3258457 C2.17799219,17.8024492 3.82617578,15.6022207 6.23129297,14.5539688 L8.66992188,18.3248906 L8.66992188,21.6523438 Z M7.55401758,14.1175527 C8.10377148,13.9911426 8.66951758,13.9257812 9.24101367,13.9257812 L9.415625,13.9257812 C9.99722852,13.9257812 10.572498,13.9925801 11.1309668,14.1215059 L9.34375,16.8850996 L7.55401758,14.1175527 Z M10.0175781,21.6523887 L10.0175781,21.6523887 L10.0175781,18.3248906 L12.4536465,14.5579668 C14.8708926,15.6099023 16.5109453,17.8115234 16.8931855,20.3258906 L17.0948848,21.6523887 L10.0175781,21.6523887 Z" id="Shape"></path>
            </g>
        </g>
    </g>
</svg>