<?xml version="1.0" encoding="UTF-8"?>
<svg width="27px" height="21px" viewBox="0 0 27 21" version="1.1" xmlns="http://www.w3.org/2000/svg" xmlns:xlink="http://www.w3.org/1999/xlink">
    <title>icon/job</title>
    <g id="Page-1" stroke="none" stroke-width="1" fill="none" fill-rule="evenodd">
        <g id="2,0-About" transform="translate(-1142.000000, -1902.000000)" fill="#005398" fill-rule="nonzero">
            <g id="2-PILLARS" transform="translate(166.000000, 1240.000000)">
                <g id="Links" transform="translate(960.000000, 271.000000)">
                    <g id="Molecules-/-CTA-/-Button-/-Empty-Copy-6" transform="translate(0.000000, 385.000000)">
                        <g id="Molecules-/-CTA-/-Button-/-Empty" transform="translate(0.000000, 4.000000)">
                            <g id="Group" transform="translate(16.000000, 1.000000)">
                                <g id="graduation-cap" transform="translate(0.000000, 1.000000)">
                                    <path d="M26.1030928,5.6056701 L15.3402062,0.347938144 C14.4123711,-0.115979381 12.8350515,-0.115979381 11.9072165,0.347938144 L0.896907216,5.6056701 C0.12371134,5.97680412 0,6.50257732 0,6.78092784 C0,7.05927835 0.12371134,7.55412371 0.896907216,7.95618557 L1.79381443,8.38917526 L1.79381443,13.3376289 C1.2371134,13.5541237 0.835051546,14.1108247 0.835051546,14.7293814 C0.835051546,15.3479381 1.2371134,15.9046392 1.7628866,16.121134 L0.371134021,20.5438144 L4.26804124,20.5438144 L2.87628866,16.121134 C3.43298969,15.9046392 3.80412371,15.3479381 3.80412371,14.7293814 C3.80412371,14.0798969 3.40206186,13.5541237 2.84536082,13.3376289 L2.84536082,8.91494845 L4.48453608,9.71907216 L4.48453608,16.1520619 C4.48453608,16.2448454 4.51546392,16.3376289 4.57731959,16.4304124 C4.73195876,16.6159794 7.60824742,20.5438144 13.4845361,20.5438144 C19.3608247,20.5438144 22.2371134,16.5850515 22.3608247,16.4304124 C22.4226804,16.3376289 22.4536082,16.2448454 22.4536082,16.1520619 L22.4536082,9.75 L26.1030928,7.95618557 C26.8762887,7.58505155 27,7.05927835 27,6.78092784 C26.9690722,6.50257732 26.8762887,5.97680412 26.1030928,5.6056701 Z M21.4639175,15.9974227 C20.9690722,16.6159794 18.3092784,19.5850515 13.4845361,19.5850515 C8.65979381,19.5850515 6,16.6159794 5.50515464,15.9974227 L5.50515464,10.1520619 L11.9072165,13.2139175 C12.371134,13.4304124 12.9896907,13.5541237 13.6082474,13.5541237 C14.257732,13.5541237 14.8762887,13.4304124 15.3402062,13.1829897 L21.4639175,10.1829897 L21.4639175,15.9974227 Z M25.6701031,7.09020619 L21.9587629,8.91494845 C21.8041237,8.91494845 21.6804124,8.97680412 21.6185567,9.10051546 L14.9072165,12.3479381 C14.257732,12.6881443 12.9896907,12.6881443 12.3092784,12.3479381 L4.05154639,8.38917526 L13.5463918,7.2757732 C13.8247423,7.24484536 14.0103093,6.99742268 13.9793814,6.75 C13.9484536,6.47164948 13.7010309,6.28608247 13.4536082,6.31701031 L2.44329897,7.61597938 L1.32989691,7.09020619 C1.05154639,6.96649485 0.989690722,6.81185567 0.989690722,6.81185567 C0.989690722,6.78092784 1.05154639,6.65721649 1.32989691,6.53350515 L12.3402062,1.24484536 C12.6804124,1.09020619 13.1443299,0.99742268 13.6082474,0.99742268 C14.1030928,0.99742268 14.5979381,1.09020619 14.9072165,1.24484536 L25.6701031,6.50257732 C25.9484536,6.62628866 26.0103093,6.75 26.0103093,6.81185567 C26.0103093,6.81185567 25.9175258,6.96649485 25.6701031,7.09020619 Z" id="Shape"></path>
                                </g>
                            </g>
                        </g>
                    </g>
                </g>
            </g>
        </g>
    </g>
</svg>