<?xml version="1.0" encoding="UTF-8"?>
<svg width="27px" height="16px" viewBox="0 0 27 16" version="1.1" xmlns="http://www.w3.org/2000/svg" xmlns:xlink="http://www.w3.org/1999/xlink">
    <title>jeep 2</title>
    <g id="Symbols" stroke="none" stroke-width="1" fill="none" fill-rule="evenodd">
        <g id="Atoms-/-Icons-/-Pillars-/-Automotive" transform="translate(0.000000, -3.000000)" fill="#005398" fill-rule="nonzero">
            <g id="jeep" transform="translate(0.000000, 3.000000)">
                <path d="M7.89921722,10.984326 C6.95231507,10.984326 6.18199609,11.7155611 6.18199609,12.6144201 C6.18199609,13.513279 6.95231507,14.2445141 7.89921722,14.2445141 C8.84611937,14.2445141 9.61643836,13.513279 9.61643836,12.6144201 C9.61643836,11.7155611 8.84611937,10.984326 7.89921722,10.984326 Z M7.89921722,13.492163 C7.38938748,13.492163 6.97455969,13.0983824 6.97455969,12.6144201 C6.97455969,12.1304577 7.38938748,11.7366771 7.89921722,11.7366771 C8.40904697,11.7366771 8.82387476,12.1304577 8.82387476,12.6144201 C8.82387476,13.0983824 8.40904697,13.492163 7.89921722,13.492163 Z" id="Shape"></path>
                <path d="M21.0029354,10.984326 C20.0560333,10.984326 19.2857143,11.7155611 19.2857143,12.6144201 C19.2857143,13.513279 20.0560333,14.2445141 21.0029354,14.2445141 C21.9498376,14.2445141 22.7201566,13.513279 22.7201566,12.6144201 C22.7201566,11.7155611 21.9498376,10.984326 21.0029354,10.984326 Z M21.0029354,13.492163 C20.4931057,13.492163 20.0782779,13.0983824 20.0782779,12.6144201 C20.0782779,12.1304577 20.4931057,11.7366771 21.0029354,11.7366771 C21.5127652,11.7366771 21.927593,12.1304577 21.927593,12.6144201 C21.927593,13.0983824 21.5127652,13.492163 21.0029354,13.492163 Z" id="Shape"></path>
                <path d="M26.3131115,10.3322884 L26.3131115,6.86966771 L21.5695127,6.24852665 L19.0689217,2.00626959 L15.0587084,2.00626959 L15.0587084,1.37931034 C15.0587084,0.618783699 14.4068513,0 13.6056751,0 L5.15166341,0 C4.35048728,0 3.69863014,0.618783699 3.69863014,1.37931034 L3.69863014,2.05883386 C3.08951859,2.22304702 2.64187867,2.75546082 2.64187867,3.38557994 L2.64187867,3.76175549 L1.45303327,3.76175549 C0.651857143,3.76175549 0,4.38053918 0,5.14106583 L0,8.15047022 C0,8.91099687 0.651857143,9.52978056 1.45303327,9.52978056 L2.64187867,9.52978056 L2.64187867,10.3322884 L1.90215264,10.3322884 L1.90215264,13.0909091 L4.36871624,13.0909091 C4.61351272,14.7328401 6.10305675,16 7.89921722,16 C9.13313307,16 10.2224853,15.401931 10.8630881,14.4952978 L18.0391174,14.4952978 C18.6797202,15.401931 19.7690196,16 21.0029883,16 C22.7991487,16 24.2886928,14.7328401 24.5334892,13.0909091 L27,13.0909091 L27,10.3322884 L26.3131115,10.3322884 Z M2.64187867,8.77742947 L1.45303327,8.77742947 C1.08882387,8.77742947 0.792563601,8.49620063 0.792563601,8.15047022 L0.792563601,5.14106583 C0.792563601,4.79533542 1.08882387,4.51410658 1.45303327,4.51410658 L2.64187867,4.51410658 L2.64187867,8.77742947 Z M12.4168297,0.752351097 L13.6056751,0.752351097 C13.9698845,0.752351097 14.2661448,1.03357994 14.2661448,1.37931034 L14.2661448,2.00626959 L12.4168297,2.00626959 L12.4168297,0.752351097 Z M9.77495108,0.752351097 L11.6242661,0.752351097 L11.6242661,2.00626959 L9.77495108,2.00626959 L9.77495108,0.752351097 Z M7.13307241,0.752351097 L8.98238748,0.752351097 L8.98238748,2.00626959 L7.13307241,2.00626959 L7.13307241,0.752351097 Z M4.49119374,1.37931034 C4.49119374,1.03357994 4.78745401,0.752351097 5.15166341,0.752351097 L6.34050881,0.752351097 L6.34050881,2.00626959 L4.49119374,2.00626959 L4.49119374,1.37931034 Z M4.34552055,12.338558 L2.69471624,12.338558 L2.69471624,11.0846395 L4.71913503,11.0846395 C4.51428376,11.4668339 4.38382779,11.8904075 4.34552055,12.338558 Z M7.89921722,15.2476489 C6.36967515,15.2476489 5.12524462,14.0663574 5.12524462,12.6144201 C5.12524462,11.1624828 6.36967515,9.98119122 7.89921722,9.98119122 C9.4287593,9.98119122 10.6731898,11.1624828 10.6731898,12.6144201 C10.6731898,14.0663574 9.4287593,15.2476489 7.89921722,15.2476489 Z M11.261272,13.7429467 C11.3932603,13.3897429 11.4657534,13.0100564 11.4657534,12.6144201 C11.4657534,12.5723887 11.4640098,12.5307085 11.4624247,12.4890282 L17.4397808,12.4890282 C17.4381429,12.5307085 17.4364521,12.5723887 17.4364521,12.6144201 C17.4364521,13.0100564 17.508998,13.3897429 17.6409335,13.7429467 L11.261272,13.7429467 Z M17.8781742,10.984326 C17.7414834,11.219511 17.6336419,11.4717492 17.5586654,11.7366771 L11.3434873,11.7366771 C10.9351057,10.2941191 9.54605871,9.22884013 7.89921722,9.22884013 C6.85810568,9.22884013 5.91986888,9.65467085 5.26727202,10.3322884 L3.43444227,10.3322884 L3.43444227,3.38557994 C3.43444227,3.03984953 3.73070254,2.75862069 4.09491194,2.75862069 L18.6042681,2.75862069 L21.0704618,6.94269592 L25.5205479,7.52531661 L25.5205479,10.3322884 L23.6348806,10.3322884 C22.9822838,9.65467085 22.044047,9.22884013 21.0029354,9.22884013 C20.0141859,9.22884013 19.1183777,9.61294044 18.4717515,10.2319749 L15.5078278,10.2319749 L15.5078278,10.984326 L17.8781742,10.984326 Z M21.0029354,15.2476489 C19.4733933,15.2476489 18.2289628,14.0663574 18.2289628,12.6144201 C18.2289628,11.1624828 19.4733933,9.98119122 21.0029354,9.98119122 C22.5324775,9.98119122 23.776908,11.1624828 23.776908,12.6144201 C23.776908,14.0663574 22.5324775,15.2476489 21.0029354,15.2476489 Z M26.2074364,12.338558 L24.5566321,12.338558 C24.5183249,11.8904075 24.3878689,11.4668339 24.1830176,11.0846395 L26.2074364,11.0846395 L26.2074364,12.338558 Z" id="Shape"></path>
                <path d="M12.9452055,3.51097179 L4.22700587,3.51097179 L4.22700587,7.77429467 L12.9452055,7.77429467 L12.9452055,3.51097179 Z M12.1526419,7.02194357 L5.01956947,7.02194357 L5.01956947,4.26332288 L12.1526419,4.26332288 L12.1526419,7.02194357 Z" id="Shape"></path>
                <polygon id="Path" points="13.9227006 10.2319749 14.7152642 10.2319749 14.7152642 10.984326 13.9227006 10.984326"></polygon>
                <path d="M18.2299667,3.51097179 L13.7377691,3.51097179 L13.7377691,7.77429467 L20.6038532,7.77429467 L18.2299667,3.51097179 Z M14.5303327,4.26332288 L17.7524207,4.26332288 L19.2884618,7.02194357 L14.5303327,7.02194357 L14.5303327,4.26332288 Z" id="Shape"></path>
                <polygon id="Path" points="5.89138943 5.46708464 6.68395303 5.46708464 6.68395303 6.21943574 5.89138943 6.21943574"></polygon>
                <polygon id="Path" points="7.47651663 5.46708464 8.26908023 5.46708464 8.26908023 6.21943574 7.47651663 6.21943574"></polygon>
                <polygon id="Path" points="12.3375734 10.2319749 13.130137 10.2319749 13.130137 10.984326 12.3375734 10.984326"></polygon>
            </g>
        </g>
    </g>
</svg>