<?xml version="1.0" encoding="UTF-8"?>
<svg width="1006px" height="883px" viewBox="0 0 1006 883" version="1.1" xmlns="http://www.w3.org/2000/svg" xmlns:xlink="http://www.w3.org/1999/xlink">
    <title>interactive Component</title>
    <g id="Page-1" stroke="none" stroke-width="1" fill="none" fill-rule="evenodd">
        <g id="1,0-LP" transform="translate(-893.000000, -448.000000)" fill="#FFFFFF" stroke="#FFFFFF" stroke-width="0.5">
            <g id="1-HEADER" transform="translate(65.000000, 341.000000)">
                <g id="interactive-Component" transform="translate(828.406691, 107.800930)">
                    <polygon id="Rectangle" fill-opacity="0.164514928" transform="translate(125.583069, 508.525294) rotate(-46.000000) translate(-125.583069, -508.525294) " points="36.7693738 419.710673 214.370227 419.737209 214.396763 597.339916 36.7959104 597.313379"></polygon>
                    <polygon id="Rectangle-Copy-24" fill-opacity="0.164514928" transform="translate(371.583069, 253.525294) rotate(-46.000000) translate(-371.583069, -253.525294) " points="282.769374 164.710673 460.370227 164.737209 460.396763 342.339916 282.79591 342.313379"></polygon>
                    <polygon id="Rectangle-Copy" fill-opacity="0.164514928" transform="translate(248.728761, 380.846951) rotate(-46.000000) translate(-248.728761, -380.846951) " points="159.915066 292.03233 337.515919 292.058866 337.542456 469.661573 159.941603 469.635036"></polygon>
                    <polygon id="Rectangle-Copy-7" fill-opacity="0.164514928" transform="translate(376.445285, 504.609160) rotate(-46.000000) translate(-376.445285, -504.609160) " points="287.63159 415.794539 465.232443 415.821075 465.25898 593.423782 287.658127 593.397245"></polygon>
                    <polygon id="Rectangle-Copy-8" fill-opacity="0.164514928" transform="translate(504.069003, 627.718036) rotate(-46.000000) translate(-504.069003, -627.718036) " points="415.255308 538.903414 592.856161 538.929951 592.882698 716.532657 415.281845 716.506121"></polygon>
                    <polygon id="Rectangle-Copy-9" fill-opacity="0.164514928" transform="translate(631.785527, 750.826912) rotate(-46.000000) translate(-631.785527, -750.826912) " points="542.971832 662.01229 720.572685 662.038827 720.599221 839.641533 542.998369 839.614996"></polygon>
                    <polygon id="Rectangle-Copy-3" fill-opacity="0.164514928" transform="translate(495.327210, 125.583046) rotate(-46.000000) translate(-495.327210, -125.583046) " points="406.513515 36.7684242 584.114368 36.7949609 584.140905 214.397667 406.540052 214.371131"></polygon>
                    <polygon id="Rectangle-Copy-4" fill-opacity="0.164514928" transform="translate(623.043734, 248.691921) rotate(-46.000000) translate(-623.043734, -248.691921) " points="534.230039 159.8773 711.830892 159.903837 711.857428 337.506543 534.256575 337.480006"></polygon>
                    <polygon id="Rectangle-Copy-10" fill-opacity="0.164514928" transform="translate(627.868227, 500.132474) rotate(-46.000000) translate(-627.868227, -500.132474) " points="539.054532 411.317852 716.655385 411.344389 716.681922 588.947095 539.081069 588.920559"></polygon>
                    <polygon id="Rectangle-Copy-11" fill-opacity="0.164514928" transform="translate(380.923310, 755.396379) rotate(-46.000000) translate(-380.923310, -755.396379) " points="292.109615 666.581758 469.710468 666.608294 469.737005 844.211001 292.136152 844.184464"></polygon>
                    <polygon id="Rectangle-Copy-5" fill-opacity="0.16" transform="translate(751.320983, 371.800797) rotate(-46.000000) translate(-751.320983, -371.800797) " points="662.507288 282.986176 840.108141 283.012712 840.134678 460.615419 662.533825 460.588882"></polygon>
                    <polygon id="Rectangle-Copy-21" fill-opacity="0.16" transform="translate(879.320983, 494.800797) rotate(-46.000000) translate(-879.320983, -494.800797) " points="790.507288 405.986176 968.108141 406.012712 968.134678 583.615419 790.533825 583.588882"></polygon>
                </g>
            </g>
        </g>
    </g>
</svg>