<?xml version="1.0" encoding="UTF-8"?>
<svg width="27px" height="23px" viewBox="0 0 27 23" version="1.1" xmlns="http://www.w3.org/2000/svg" xmlns:xlink="http://www.w3.org/1999/xlink">
    <title>portfolio (2) 2</title>
    <g id="Symbols" stroke="none" stroke-width="1" fill="none" fill-rule="evenodd">
        <g id="Atoms-/-Icons-/-Pillars-/-Job" fill="#005398" fill-rule="nonzero">
            <g id="portfolio-(2)">
                <path d="M26.2139282,3.06686631 C26.2122803,3.06686631 26.2106323,3.06666667 26.2089844,3.06666667 L19.0371094,3.06666667 L19.0371094,2.3 C19.0371094,1.03180556 17.9725342,0 16.6640625,0 L10.3359375,0 C9.02746582,0 7.96289062,1.03180556 7.96289062,2.3 L7.96289062,3.06666667 L0.791015625,3.06666667 C0.350601223,3.06666667 0,3.41645833 0,3.83333333 L0,20.7 C0,21.9681944 1.0645752,23 2.37304688,23 L24.6269531,23 C25.9354248,23 27,21.9681944 27,20.7 L27,3.8495052 C27,3.84850694 27,3.84750869 27,3.84651039 C26.9697189,3.34298611 26.6502228,3.06966147 26.2139282,3.06686631 Z M9.54492188,2.3 C9.54492188,1.87733508 9.89984895,1.53333333 10.3359375,1.53333333 L16.6640625,1.53333333 C17.100151,1.53333333 17.4550781,1.87733508 17.4550781,2.3 L17.4550781,3.06666667 L9.54492188,3.06666667 L9.54492188,2.3 Z M25.1114502,4.6 L22.6549759,11.7423785 C22.5472412,12.056033 22.2456665,12.2666667 21.904747,12.2666667 L17.4550781,12.2666667 L17.4550781,11.5 C17.4550781,11.0765365 17.100975,10.7333333 16.6640625,10.7333333 L10.3359375,10.7333333 C9.89902498,10.7333333 9.54492188,11.0765365 9.54492188,11.5 L9.54492188,12.2666667 L5.095253,12.2666667 C4.7543335,12.2666667 4.45275879,12.056033 4.3450241,11.7423785 L1.8885498,4.6 L25.1114502,4.6 Z M15.8730469,12.2666667 L15.8730469,13.8 L11.1269531,13.8 L11.1269531,12.2666667 L15.8730469,12.2666667 Z M25.4179688,20.7 C25.4179688,21.1226649 25.0630417,21.4666667 24.6269531,21.4666667 L2.37304688,21.4666667 C1.93695833,21.4666667 1.58203125,21.1226649 1.58203125,20.7 L1.58203125,8.55771703 L2.84415437,12.2273351 C3.16756438,13.168099 4.0722885,13.8 5.095253,13.8 L9.54492188,13.8 L9.54492188,14.5666667 C9.54492188,14.9901302 9.89902498,15.3333333 10.3359375,15.3333333 L16.6640625,15.3333333 C17.100975,15.3333333 17.4550781,14.9901302 17.4550781,14.5666667 L17.4550781,13.8 L21.904747,13.8 C22.9277115,13.8 23.8324356,13.168099 24.1558456,12.2273351 L25.4179688,8.55771703 L25.4179688,20.7 Z" id="Shape"></path>
            </g>
        </g>
    </g>
</svg>