<?xml version="1.0" encoding="UTF-8"?>
<svg width="20px" height="20px" viewBox="0 0 20 20" version="1.1" xmlns="http://www.w3.org/2000/svg" xmlns:xlink="http://www.w3.org/1999/xlink">
    <title>Path</title>
    <g id="Symbols" stroke="none" stroke-width="1" fill="none" fill-rule="evenodd">
        <g id="Atoms--/-Icons-/-Reset" fill="#FFFFFF" fill-rule="nonzero">
            <path d="M10.7393119,0.909090909 C7.08654818,0.909090909 3.862951,2.97804614 2.36185405,6.11446805 L1.31765557,3.98614862 L0,4.60915007 L2.16855244,9.02779027 L6.66995341,6.8989869 L6.03515994,5.60579914 L3.69019153,6.714482 C4.95694366,4.08067966 7.66789098,2.34472048 10.7393119,2.34472048 C15.0395231,2.34472048 18.537851,5.77889095 18.537851,10 C18.537851,14.2211091 15.0395231,17.6554005 10.7393119,17.6554005 C8.20724563,17.6554005 5.82304172,16.4411365 4.3618787,14.4073481 L3.16649,15.2349383 C4.90193178,17.6494318 7.732722,19.0909091 10.7393119,19.0909091 C15.8455148,19.0909091 20,15.0127661 20,10 C20,4.98723387 15.8455559,0.909090909 10.7393119,0.909090909 Z" id="Path"></path>
        </g>
    </g>
</svg>