<?xml version="1.0" encoding="UTF-8"?>
<svg width="21px" height="21px" viewBox="0 0 21 21" version="1.1" xmlns="http://www.w3.org/2000/svg" xmlns:xlink="http://www.w3.org/1999/xlink">
    <title>export (2) 2</title>
    <g id="Symbols" stroke="none" stroke-width="1" fill="none" fill-rule="evenodd">
        <g id="Atoms-/-Icons-/-External" fill="#005398" fill-rule="nonzero">
            <g id="export-(2)">
                <path d="M20.2085116,1.02539012e-05 L14.4836765,1.02539012e-05 C14.0465322,1.02539012e-05 13.6922394,0.35430305 13.6922394,0.791488383 C13.6922394,1.2286327 14.0465322,1.5829255 14.4836765,1.5829255 L19.4170745,1.5829255 L19.4170745,6.51632348 C19.4170745,6.9534678 19.7713673,7.30776059 20.2085116,7.30776059 C20.6456559,7.30776059 20.9999897,6.9534678 20.9999897,6.51632348 L20.9999897,0.791488383 C20.9999897,0.35430305 20.645697,1.02539012e-05 20.2085116,1.02539012e-05 Z" id="Path"></path>
                <path d="M20.7680875,0.231912484 C20.4589119,-0.0773041615 19.9581524,-0.0773041615 19.6489767,0.231912484 L8.35750373,11.5233445 C8.04828709,11.832274 8.04828709,12.3335257 8.35750373,12.6424553 C8.51184545,12.7970431 8.71446254,12.8743575 8.91707963,12.8743575 C9.11940961,12.8743575 9.3220267,12.7970431 9.47665553,12.6424553 L20.7680875,1.35102327 C21.0773042,1.04209373 21.0773042,0.540842021 20.7680875,0.231912484 Z" id="Path"></path>
                <path d="M17.5176008,9.8404742 C17.0804565,9.8404742 16.7261227,10.194767 16.7261227,10.6319113 L16.7261227,19.4170848 L1.58291524,19.4170848 L1.58291524,4.27387731 L10.3680887,4.27387731 C10.805233,4.27387731 11.1595258,3.91958451 11.1595258,3.48244019 C11.1595258,3.04529588 10.805233,2.69096206 10.3680887,2.69096206 L0.791478129,2.69096206 C0.354292796,2.69096206 0,3.04525486 0,3.48244019 L0,20.2085629 C0,20.6457072 0.354292796,21 0.791478129,21 L17.5176008,21 C17.9549912,21 18.3090379,20.6457072 18.3090379,20.2085219 L18.3090379,10.6319113 C18.3090379,10.194767 17.9547451,9.8404742 17.5176008,9.8404742 Z" id="Path"></path>
            </g>
        </g>
    </g>
</svg>