<?xml version="1.0" encoding="UTF-8"?>
<svg width="29px" height="27px" viewBox="0 0 29 27" version="1.1" xmlns="http://www.w3.org/2000/svg" xmlns:xlink="http://www.w3.org/1999/xlink">
    <title>Atoms / icons / System / SM-Linkedin</title>
    <defs>
        <linearGradient x1="191.97298%" y1="-108.59478%" x2="0.862610393%" y2="103.295115%" id="linearGradient-1">
            <stop stop-color="#05ADEF" offset="0%"></stop>
            <stop stop-color="#1B4A9B" offset="100%"></stop>
        </linearGradient>
        <path d="M21.0899789,8.35387318 C25.0392019,8.35387318 28,10.9576543 28,16.5523507 L28,27 L21.997378,27 L21.997378,17.2525347 C21.997378,14.8050527 21.1307156,13.1336456 18.9573448,13.1336456 C17.2987785,13.1336456 16.3134872,14.2589092 15.8783654,15.3484859 C15.7203428,15.7378785 15.6796061,16.2786013 15.6796061,16.8247449 L15.6796061,26.9995483 L9.67653642,26.9995483 L9.67697352,26.9084978 C9.67991619,26.2901249 9.69700196,22.6142095 9.70630903,18.7200299 L9.70800738,17.9643547 C9.70933192,17.3336249 9.7104173,16.7019824 9.71117155,16.0813405 L9.71191182,15.342613 C9.71200674,15.2206259 9.71208695,15.0992695 9.71215171,14.978639 L9.71213993,13.5720182 C9.71065645,11.1927597 9.70106019,9.30176328 9.67653642,8.78166304 L15.6800537,8.78166304 L15.6800537,11.3633094 C16.4777771,10.1246612 17.9004285,8.35387318 21.0899789,8.35387318 Z M6.35761335,8.78166304 L6.35761335,27 L0.356781991,27 L0.356781991,8.78166304 L6.35761335,8.78166304 Z M3.39681525,3.55271368e-15 C5.45066189,3.55271368e-15 6.71260472,1.36016396 6.75244612,3.14721432 C6.75244612,4.89631922 5.45066189,6.29578384 3.35697384,6.29578384 L3.35697384,6.29578384 L3.31802775,6.29578384 C1.30447017,6.29578384 0,4.89631922 0,3.14721432 C0,1.36016396 1.34341626,3.55271368e-15 3.39681525,3.55271368e-15 Z" id="path-2"></path>
    </defs>
    <g id="Page-1" stroke="none" stroke-width="1" fill="none" fill-rule="evenodd">
        <g id="1,3-LP-HELP" transform="translate(-1319.000000, -862.000000)">
            <g id="Quick-Help" transform="translate(325.000000, 116.000000)">
                <g id="Contact" transform="translate(798.000000, 365.000000)">
                    <g id="Atoms-/-icons-/-System-/-SM-Linkedin" transform="translate(196.846023, 381.000000)">
                        <mask id="mask-3" fill="white">
                            <use xlink:href="#path-2"></use>
                        </mask>
                        <use id="Mask" fill="url(#linearGradient-1)" fill-rule="nonzero" xlink:href="#path-2"></use>
                    </g>
                </g>
            </g>
        </g>
    </g>
</svg>