<?xml version="1.0" encoding="UTF-8"?>
<svg width="38px" height="27px" viewBox="0 0 38 27" version="1.1" xmlns="http://www.w3.org/2000/svg" xmlns:xlink="http://www.w3.org/1999/xlink">
    <title>Atoms / icons / System / SM-Twitter</title>
    <defs>
        <linearGradient x1="191.97298%" y1="-40.8241839%" x2="0.862610393%" y2="80.5210884%" id="linearGradient-1">
            <stop stop-color="#05ADEF" offset="0%"></stop>
            <stop stop-color="#1B4A9B" offset="100%"></stop>
        </linearGradient>
        <path d="M29.9421352,4.44826586 L29.8754685,4.40400451 C28.4976908,3.09829463 26.8754685,2.4786357 25.0088019,2.56715841 L24.9421352,2.43437435 L24.9865796,2.41224367 C26.6754685,2.03602218 27.6754685,1.63767002 27.9865796,1.1950565 C28.0754685,0.840965685 27.9643574,0.641789601 27.5865796,0.59752825 C26.7421352,0.708181629 25.9421352,0.885227036 25.2532463,1.17292582 C26.1421352,0.59752825 26.4754685,0.199176083 26.2754685,0 C25.4088019,0.0221306759 24.4532463,0.464744194 23.4754685,1.34997123 C23.8310241,0.730312305 23.9865796,0.37622149 23.8976908,0.331960139 C23.4088019,0.641789601 23.0088019,0.995880416 22.6532463,1.37210191 C21.8976908,2.21306759 21.2976908,2.98764125 20.8310241,3.69582288 L20.8088019,3.74008423 C19.6310241,5.66545303 18.7865796,7.59082184 18.2976908,9.56045199 L18.119913,9.71536672 L18.0754685,9.7374974 C17.3643574,8.85227036 16.4976908,8.09982738 15.4754685,7.50229913 C14.2754685,6.7055948 12.8532463,5.9752825 11.2088019,5.24497019 C9.43102409,4.3154818 7.60880186,3.56303882 5.78657964,2.96551057 C5.76435742,5.02366343 6.78657964,6.63920277 8.76435742,7.83425927 L8.76435742,7.85638995 C8.07546853,7.85638995 7.38657964,7.96704333 6.71991297,8.16621941 C6.85324631,10.0694575 8.20880186,11.3751674 10.7643574,12.083349 L10.7421352,12.1276104 C9.7421352,12.0612184 8.91991297,12.4153092 8.27546853,13.1456215 C9.11991297,14.7832915 10.6088019,15.5578652 12.7643574,15.5136038 C12.3421352,15.7349106 12.0088019,15.9562173 11.7865796,16.2217854 C11.3865796,16.6422683 11.2532463,17.1291432 11.3865796,17.6824101 C11.8532463,18.5233757 12.6754685,18.8995972 13.8976908,18.8332052 L13.9643574,18.9217279 L13.9421352,18.9659893 C11.8310241,21.1347955 9.27546853,22.1085452 6.29769075,21.9093692 L6.25324631,21.9314998 C4.43102409,21.9093692 2.47546853,21.0462728 0.364357419,19.3200801 C2.47546853,22.3519827 5.29769075,24.5429196 8.78657964,25.9371522 C12.7643574,27.242862 16.7643574,27.3535154 20.7421352,26.224851 L20.8088019,26.224851 C24.6754685,25.1183172 27.9421352,22.8167269 30.6532463,19.3643414 C31.8976908,17.5717567 32.6754685,15.845564 32.9865796,14.1857633 C35.0088019,14.2521553 36.4532463,13.6767577 37.3643574,12.4374399 L37.3421352,12.3931785 C36.6532463,12.6366159 35.3421352,12.5702239 33.4088019,12.1718718 L33.4088019,11.950565 C35.5421352,11.7071276 36.8088019,11.0210766 37.2088019,9.89241213 C35.719913,10.4678097 34.2532463,10.4899404 32.8088019,9.93667348 C32.5421352,7.94491265 31.5865796,6.10806655 29.9421352,4.44826586" id="path-2"></path>
    </defs>
    <g id="Page-1" stroke="none" stroke-width="1" fill="none" fill-rule="evenodd">
        <g id="1,3-LP-HELP" transform="translate(-1400.000000, -862.000000)">
            <g id="Quick-Help" transform="translate(325.000000, 116.000000)">
                <g id="Contact" transform="translate(798.000000, 365.000000)">
                    <g id="Atoms-/-icons-/-System-/-SM-Twitter" transform="translate(277.473619, 381.000000)">
                        <mask id="mask-3" fill="white">
                            <use xlink:href="#path-2"></use>
                        </mask>
                        <use id="Mask" fill="url(#linearGradient-1)" xlink:href="#path-2"></use>
                    </g>
                </g>
            </g>
        </g>
    </g>
</svg>