<?xml version="1.0" encoding="UTF-8"?>
<svg width="33px" height="42px" viewBox="0 0 33 42" version="1.1" xmlns="http://www.w3.org/2000/svg" xmlns:xlink="http://www.w3.org/1999/xlink">
    <title>file (1)</title>
    <g id="Page-1" stroke="none" stroke-width="1" fill="none" fill-rule="evenodd">
        <g id="3,5-Guide" transform="translate(-1278.000000, -781.000000)" fill="#FFFFFF" fill-rule="nonzero">
            <g id="file-(1)" transform="translate(1278.000000, 781.000000)">
                <path d="M22.4460633,0.324600199 C22.2550749,0.121765137 21.9932206,0 21.7218327,0 L5.47320021,0 C2.47490466,0 0,2.48561094 0,5.50859072 L0,36.4910889 C0,39.5143891 2.47490466,42 5.47320021,42 L27.5267998,42 C30.5250953,42 33,39.5143891 33,36.4910889 L33,11.8897247 C33,11.626007 32.8792419,11.3725434 32.708274,11.1796417 L22.4460633,0.324600199 Z M22.7377894,3.58117676 L29.6095586,10.8550415 L25.1424637,10.8550415 C23.8144428,10.8550415 22.7377894,9.77966309 22.7377894,8.440567 L22.7377894,3.58117676 Z M27.5267998,39.9710083 L5.47320021,39.9710083 C3.59191674,39.9710083 2.01221062,38.3986358 2.01221062,36.4910889 L2.01221062,5.50859072 C2.01221062,3.61161806 3.58174764,2.0289917 5.47320021,2.0289917 L20.7255788,2.0289917 L20.7255788,8.440567 C20.7255788,10.9056701 22.6977485,12.8840332 25.1424637,12.8840332 L30.9877894,12.8840332 L30.9877894,36.4910889 C30.9877894,38.3986358 29.4182524,39.9710083 27.5267998,39.9710083 Z" id="Shape"></path>
                <g id="Group-3" transform="translate(17.000000, 24.500000) scale(1, -1) translate(-17.000000, -24.500000) translate(8.000000, 14.000000)">
                    <path d="M17.0155961,0 L0.974553624,0 C0.438641474,0 0,0.455638341 0,1.01302734 C0,1.57009639 0.438641474,2.02605476 0.974553624,2.02605476 L17.0254463,2.02605476 C17.5613585,2.02605476 18,1.57009639 18,1.01302734 C18,0.455638341 17.5613585,0 17.0155961,0 Z" id="Path"></path>
                    <path d="M4.00533552,13.4125337 L8.02052124,8.92462403 L8.02052124,19.9869726 C8.02052124,20.5440416 8.45916271,21 8.99507486,21 C9.53129489,21 9.96962857,20.5440416 9.96962857,19.9869726 L9.96962857,8.92462403 L13.9848143,13.4125337 C14.1796634,13.6249942 14.433306,13.736664 14.6961831,13.736664 C14.9301252,13.736664 15.1739175,13.6454724 15.3589165,13.4630891 C15.7489227,13.0781642 15.7781654,12.4398226 15.4078597,12.0347397 L9.69690125,5.66284221 C9.5115945,5.46030075 9.25825978,5.33871186 8.98553255,5.33871186 C8.71249743,5.33871186 8.45916271,5.46030075 8.27416376,5.66284221 L2.56320544,12.0347397 C2.19289965,12.4398226 2.22214244,13.0880834 2.61184074,13.4630891 C3.0212395,13.8480139 3.63502974,13.8176167 4.00533552,13.4125337 Z" id="Path"></path>
                </g>
            </g>
        </g>
    </g>
</svg>