<?xml version="1.0" encoding="UTF-8"?>
<svg width="64px" height="64px" viewBox="0 0 64 64" version="1.1" xmlns="http://www.w3.org/2000/svg" xmlns:xlink="http://www.w3.org/1999/xlink">
    <title>flaticon1566823859-svg</title>
    <g id="Page-1" stroke="none" stroke-width="1" fill="none" fill-rule="evenodd" opacity="0.704543341">
        <g id="1,0-LP" transform="translate(-448.000000, -3994.000000)" fill="#FFFFFF" fill-rule="nonzero">
            <g id="4-CAREERS" transform="translate(166.000000, 3384.000000)">
                <g id="Carousel" transform="translate(0.000000, 342.000000)">
                    <g id="flaticon1566823859-svg" transform="translate(282.000000, 268.000000)">
                        <path d="M31.4926189,0 C48.857649,0 62.9852378,14.3552 62.9852378,32 C62.9852378,49.6448 48.857649,64 31.4926189,64 C14.1275888,64 0,49.6448 0,32 C0,14.3552 14.1275888,0 31.4926189,0 Z M24.7364024,15.1189333 C24.4141279,14.8970667 23.9984254,14.8714667 23.6541061,15.0570667 C23.3097868,15.2416 23.0945872,15.6042667 23.0945872,16 L23.0945872,16 L23.0945872,48 C23.0945872,48.3957333 23.3097868,48.7584 23.6541061,48.9429333 C23.8073701,49.0261333 23.9763805,49.0666667 24.1443412,49.0666667 C24.3511427,49.0666667 24.5579442,49.0037333 24.7353527,48.8810667 L24.7353527,48.8810667 L47.8299399,32.8810667 C48.1165227,32.6826667 48.2886823,32.3530667 48.2886823,32 C48.2886823,31.6469333 48.1165227,31.3173333 47.8309896,31.1189333 L47.8309896,31.1189333 Z" id="Combined-Shape"></path>
                    </g>
                </g>
            </g>
        </g>
    </g>
</svg>